<svg xmlns="http://www.w3.org/2000/svg" width="401" height="269" fill="none">
  <rect width="378.823" height="230" y="39.786" fill="#219653" rx="24" transform="rotate(-6.029 0 39.786)"/>
  <g opacity=".6">
    <mask id="a" width="395" height="263" x="3" y="3" maskUnits="userSpaceOnUse" style="mask-type:alpha">
      <rect width="378.823" height="230" y="39.786" fill="#F90" rx="24" transform="rotate(-6.029 0 39.786)"/>
    </mask>
    <g stroke="#168C49" stroke-miterlimit="10" stroke-width="1.5" mask="url(#a)">
      <path d="M110.303-281.531C28.14-261.026-12.411-138.059-2.033-49.989 9.937 51.501 86.66 82.126 72.721 161.795c-12.695 72.7-83.12 84.342-88.808 137.404-5.226 48.765 45.586 119.69 270.79 221.632"/>
      <path d="M263.474 513.911C41.495 413.155-10.976 342.362-7.721 293.122c2.46-36.5 35.412-53.946 59.348-84.828a119.534 119.534 0 0 0 24.255-53.219C87.567 91.283 43.348 58.666 19.067-5.619A223.619 223.619 0 0 1 6.28-56.439C-5.475-144.726 28.161-265.64 107.097-287.636"/>
      <path d="M272.216 506.979C53.476 407.409-.636 336.789.673 287.172c.965-36.472 32.189-54.565 54.752-85.361a129.332 129.332 0 0 0 23.633-53.313C91.14 85.567 50.923 52.541 27.425-12.059A253.126 253.126 0 0 1 14.619-62.76c-12.858-88.551 13.578-207.365 89.286-230.854"/>
      <path d="M280.929 500.065C65.475 401.705 9.732 331.213 9.045 281.167c-.505-36.477 28.97-55.157 50.169-85.91a140.904 140.904 0 0 0 23.018-53.35C94.705 79.778 58.49 46.476 35.78-18.513a288.145 288.145 0 0 1-12.87-50.622c-14.12-88.781 5.276-205.513 77.755-230.494"/>
      <path d="M289.716 493.143C77.458 395.973 20.12 325.665 17.433 275.146c-1.957-36.44 25.76-55.778 45.554-86.47a155.1 155.1 0 0 0 22.41-53.46C98.26 73.889 66.057 40.265 44.117-25.14a338.465 338.465 0 0 1-12.864-50.433C15.87-164.6 28.238-279.251 97.486-305.74"/>
      <path d="M298.479 486.282C89.441 390.256 29.104 320.22 25.804 269.126c-2.396-36.466 22.464-56.39 40.972-87.004a173.355 173.355 0 0 0 21.789-53.555c13.253-60.524-14.936-94.441-36.08-160.163a403.45 403.45 0 0 1-12.908-50.298c-16.703-89.264-11.319-201.84 54.717-229.821"/>
      <path d="M307.229 479.291C101.438 384.522 40.992 314.557 34.106 263.129c-4.682-36.342 19.323-57.063 36.473-87.578a196.63 196.63 0 0 0 21.17-53.634c13.643-59.721-10.55-93.974-30.9-160.027a504.97 504.97 0 0 1-12.923-50.165C29.96-177.784 28.26-288.273 91.11-317.75"/>
      <path d="M315.986 472.373C113.424 378.834 51.351 309.026 42.564 257.1c-6.188-36.27 15.892-57.718 31.789-88.115a227.134 227.134 0 0 0 20.52-53.712c14.051-58.906-6.119-93.496-25.718-159.89-4.542-15.45-9.082-31.978-12.953-50.03-19.273-89.765-27.899-198.169 31.695-229.137"/>
      <path d="M324.743 465.454C125.418 373.072 61.868 303.478 50.909 251.098c-7.566-36.227 12.588-58.417 27.2-88.708a271.97 271.97 0 0 0 19.915-53.807C112.464 50.48 96.279 15.585 77.5-51.172c-4.377-15.54-8.883-32.028-12.984-49.911-20.553-89.891-36.183-196.276 20.169-228.734"/>
      <path d="M333.485 458.522C137.4 367.34 72.357 297.933 59.324 245.073c-8.928-36.17 9.235-59.168 22.593-89.21a339.565 339.565 0 0 0 19.311-53.875c14.829-57.315 2.655-92.53-15.403-159.626-4.205-15.559-8.712-32.06-13.028-49.776-21.927-90.225-44.52-194.478 8.618-228.43"/>
      <path d="M342.241 451.604C149.383 361.623 82.874 292.385 67.7 239.097c-10.275-36.115 5.873-59.861 18.022-89.775a456.443 456.443 0 0 0 18.677-53.953c15.22-56.498 7.044-92.034-10.151-159.497-4.01-15.653-8.528-32.11-13.043-49.644-23.29-90.46-52.823-192.626-2.916-228.099"/>
      <path d="M350.999 444.685C161.38 355.89 93.389 286.808 76.069 233.049c-11.61-36.076 2.493-60.581 13.44-90.31 6.286-17.088 12.603-34.573 18.055-54.047 15.597-55.694 11.446-91.554-4.97-159.36-3.828-15.716-8.356-32.143-13.075-49.539-24.654-90.694-61.128-190.789-14.433-227.741"/>
      <path d="M359.756 437.766c-186.336-87.615-255.814-156.437-275.3-210.725-12.958-36.035-.933-61.338 8.841-90.871 5.77-17.427 11.853-34.931 17.436-54.127 16.031-54.897 15.835-91.057.21-159.224-3.631-15.78-8.172-32.191-13.101-49.375C71.797-217.468 28.41-315.509 71.89-353.955"/>
      <path d="M368.517 430.876C185.361 344.439 114.493 275.69 92.845 221.035c-14.265-35.999-4.375-62.096 4.255-91.434 5.224-17.777 11.088-35.287 16.823-54.15 16.376-54.104 20.238-90.562 5.399-159.147-3.465-15.855-8.016-32.221-13.132-49.241-27.465-91.139-77.765-187.112-37.497-227.052"/>
      <path d="M377.255 423.915c-179.912-85.208-252.171-153.766-276.038-208.901-15.586-35.975-7.845-62.849-.341-91.967 4.663-18.125 10.334-35.672 16.195-54.302 16.77-53.272 24.626-90.08 10.585-158.952a496.86 496.86 0 0 0-13.205-49.117c-28.812-91.346-85.986-185.313-48.97-226.698"/>
      <path d="M386.011 416.997c-176.672-84.023-250.392-152.5-276.416-207.944-16.894-35.954-11.332-63.616-4.933-92.588 4.088-18.472 9.569-36.029 15.577-54.368 17.158-52.484 29.028-89.599 15.769-158.787a394.334 394.334 0 0 0-13.192-48.987c-30.35-91.577-94.332-183.457-60.594-226.387"/>
      <path d="M394.769 410.078C221.323 327.256 146.256 258.835 117.963 202.99c-18.17-35.907-14.845-64.365-9.525-93.078 3.499-18.817 8.832-36.387 14.972-54.45 17.55-51.666 33.415-89.116 20.945-158.692a327.55 327.55 0 0 0-13.222-48.854c-31.736-91.75-102.619-181.592-72.051-226.021"/>
      <path d="M403.525 403.145C233.377 321.517 156.861 253.292 126.35 196.983c-19.481-35.928-18.403-65.124-14.122-93.625 2.875-19.217 8.065-36.757 14.35-54.544 17.912-50.861 37.819-88.621 26.14-158.558a281.457 281.457 0 0 0-13.251-48.719C106.27-250.409 28.529-338.217 55.883-384.139"/>
      <path d="M412.282 396.226C245.309 315.863 167.486 247.66 134.78 190.957c-20.762-35.924-21.958-65.854-18.677-94.177 2.304-19.52 7.311-37.143 13.73-54.624 18.331-50.061 42.22-88.14 31.291-158.418a246.484 246.484 0 0 0-13.28-48.585C113.171-256.986 28.638-342.84 52.742-390.18"/>
      <path d="M421.039 389.308C257.3 310.072 178.109 242.014 143.11 184.957c-22.059-35.947-25.558-66.595-23.306-94.736 1.6-19.853 6.563-37.486 13.14-54.707 18.723-49.245 46.61-87.644 36.501-158.285a218.307 218.307 0 0 0-13.31-48.451c-36.19-92.313-127.56-176.077-106.649-224.986"/>
      <path d="M429.78 382.376C269.281 304.34 188.804 236.36 151.488 178.994c-23.327-35.958-29.155-67.305-27.888-95.27.909-20.187 5.795-37.856 12.477-54.782 19.126-48.458 51.024-87.18 41.694-158.164a197.2 197.2 0 0 0-13.341-48.332c-37.815-92.403-135.82-174.23-118.154-224.658"/>
      <path d="M438.539 375.472C183.298 250.777 126.597 149.574 127.383 77.099c.856-79.117 70.253-116.605 58.745-212.892C172.614-248.744 26.172-347.584 43.075-408.275"/>
    </g>
  </g>
  <path stroke="#fff" stroke-linecap="round" stroke-linejoin="round" stroke-width="2" d="m176.782 93.515 2.941 27.845a3.501 3.501 0 0 0 3.849 3.113l34.806-3.676a1.75 1.75 0 0 0 1.556-1.924l-2.573-24.365a1.75 1.75 0 0 0-1.924-1.556l-34.807 3.676a3.5 3.5 0 0 1-3.848-3.113Zm0 0a3.501 3.501 0 0 1 3.113-3.848l29.585-3.125"/>
  <path fill="#fff" d="M209.352 110.312a2.624 2.624 0 1 0-.552-5.22 2.624 2.624 0 0 0 .552 5.22ZM138.351 179.579l9.69-1.023.314 2.979-9.69 1.024-.314-2.98Zm1.16 8.324 10.999-1.162.321 3.036-14.619 1.544-2.059-19.492 14.229-1.503.321 3.035-10.609 1.121 1.417 13.421Zm24.046.529-.317-3.007-.263-.62-.556-5.263c-.108-1.021-.497-1.777-1.169-2.269-.673-.511-1.632-.701-2.876-.569a8.179 8.179 0 0 0-2.437.651c-.77.344-1.41.778-1.918 1.301l-1.632-2.39c.734-.697 1.633-1.252 2.696-1.664a12.634 12.634 0 0 1 3.403-.838c2.154-.228 3.87.116 5.149 1.032 1.296.896 2.058 2.42 2.285 4.574l.921 8.715-3.286.347Zm-4.657.689c-1.114.118-2.108.035-2.983-.248-.876-.301-1.582-.762-2.117-1.381a4.179 4.179 0 0 1-.912-2.241c-.088-.835.027-1.607.347-2.317.337-.711.94-1.31 1.809-1.796.868-.486 2.054-.808 3.558-.967l4.316-.456.244 2.311-4.065.43c-1.188.125-1.966.404-2.333.837-.369.415-.525.9-.466 1.457.067.632.37 1.106.911 1.425.54.318 1.256.43 2.147.336.854-.09 1.595-.366 2.222-.826.645-.462 1.076-1.09 1.293-1.882l.805 2.026c-.242.908-.773 1.649-1.595 2.224-.803.573-1.863.929-3.181 1.068Zm12.41-1.508-1.571-14.869 3.314-.35.432 4.093-.516-1.156a4.743 4.743 0 0 1 1.847-2.504c.91-.622 2.08-1.008 3.51-1.159l.35 3.314a1.7 1.7 0 0 0-.424-.012c-.132-.005-.263 0-.393.013-1.318.14-2.325.64-3.023 1.502-.699.844-.968 2.027-.807 3.549l.762 7.212-3.481.367Zm18.405-17.148c1.188-.126 2.271-.005 3.248.361.996.364 1.814 1 2.454 1.908.639.89 1.037 2.087 1.196 3.591l.9 8.52-3.48.368-.853-8.075c-.14-1.318-.559-2.269-1.259-2.852-.681-.585-1.579-.818-2.693-.701-.816.087-1.523.33-2.118.731-.596.401-1.035.954-1.317 1.659-.266.686-.346 1.529-.24 2.532l.794 7.518-3.48.367-1.571-14.869 3.314-.35.423 4.01-.714-1.164a5.236 5.236 0 0 1 2.026-2.41c.947-.625 2.071-1.007 3.37-1.144Zm29.294 12.391c-1.485.157-2.893.062-4.225-.286a10.404 10.404 0 0 1-3.534-1.738 9.824 9.824 0 0 1-2.51-2.973c-.65-1.17-1.051-2.479-1.204-3.927-.152-1.448-.034-2.812.357-4.092a9.328 9.328 0 0 1 1.864-3.407 9.827 9.827 0 0 1 3.093-2.438c1.209-.635 2.566-1.031 4.069-1.19 1.597-.169 3.084-.044 4.46.373a8.58 8.58 0 0 1 3.598 2.07l-2.107 2.447c-.786-.687-1.634-1.17-2.546-1.449a6.946 6.946 0 0 0-2.902-.285c-1.021.108-1.941.374-2.76.799a6.72 6.72 0 0 0-2.049 1.652 6.796 6.796 0 0 0-1.219 2.325c-.246.871-.316 1.807-.21 2.81.106 1.002.37 1.903.793 2.703.441.798 1 1.471 1.677 2.019a6.732 6.732 0 0 0 2.35 1.188c.889.244 1.844.312 2.865.204 1.021-.108 1.948-.393 2.781-.857.832-.482 1.559-1.15 2.182-2.004l2.574 1.981a8.967 8.967 0 0 1-3.085 2.775c-1.259.696-2.697 1.13-4.312 1.3Zm19.871-2.38-.317-3.008-.263-.62-.556-5.262c-.108-1.021-.497-1.778-1.169-2.27-.673-.511-1.632-.7-2.875-.569a8.135 8.135 0 0 0-2.437.652c-.771.344-1.411.777-1.918 1.3l-1.633-2.39c.734-.696 1.633-1.251 2.697-1.664a12.655 12.655 0 0 1 3.402-.838c2.154-.228 3.87.117 5.149 1.033 1.296.895 2.058 2.42 2.285 4.573l.921 8.715-3.286.348Zm-4.657.689c-1.114.117-2.108.035-2.983-.248-.876-.302-1.582-.762-2.116-1.382a4.166 4.166 0 0 1-.913-2.24c-.088-.836.027-1.608.347-2.317.337-.712.941-1.311 1.809-1.796.868-.486 2.054-.809 3.558-.968l4.316-.456.244 2.312-4.065.429c-1.188.126-1.966.405-2.333.838-.369.414-.524.9-.466 1.457.067.631.371 1.106.911 1.424.54.318 1.256.43 2.147.336.854-.09 1.595-.365 2.222-.826a3.317 3.317 0 0 0 1.293-1.882l.806 2.027c-.242.907-.774 1.649-1.596 2.224-.803.572-1.863.928-3.181 1.068Zm17.025-1.799c-1.244.132-2.458.1-3.642-.094-1.168-.214-2.11-.518-2.827-.912l1.057-2.786c.713.356 1.549.625 2.506.805.958.18 1.901.222 2.829.123 1.095-.115 1.868-.347 2.32-.695.469-.35.678-.776.625-1.277-.043-.408-.243-.697-.598-.866-.358-.187-.812-.308-1.362-.363a28.38 28.38 0 0 0-1.842-.115 26.195 26.195 0 0 1-2.016-.153 7.599 7.599 0 0 1-1.855-.508 3.86 3.86 0 0 1-1.441-1.115c-.389-.484-.629-1.153-.719-2.007-.1-.947.083-1.792.548-2.536.464-.762 1.159-1.38 2.085-1.853.943-.494 2.083-.811 3.419-.953a14.342 14.342 0 0 1 3.071.014c1.044.115 1.922.341 2.634.679l-1.058 2.786a6.797 6.797 0 0 0-2.235-.636 9.157 9.157 0 0 0-2.143-.027c-1.058.111-1.83.353-2.316.723-.468.369-.677.794-.626 1.277.047.445.25.762.607.949.358.188.813.318 1.365.391.552.073 1.158.122 1.817.146.676.004 1.348.055 2.016.153a7.644 7.644 0 0 1 1.855.508 3.35 3.35 0 0 1 1.463 1.056c.389.485.628 1.145.716 1.98.098.928-.095 1.765-.579 2.511-.466.743-1.18 1.363-2.141 1.859-.963.477-2.141.789-3.533.936Zm16.564-17.151c1.188-.125 2.271-.005 3.248.361.996.364 1.814 1 2.454 1.909.638.89 1.037 2.086 1.196 3.59l.9 8.521-3.481.367-.853-8.075c-.139-1.318-.558-2.268-1.258-2.851-.681-.585-1.579-.819-2.693-.701-.817.086-1.523.33-2.119.73-.596.401-1.035.954-1.317 1.66-.265.685-.345 1.529-.239 2.531l.794 7.518-3.481.368-2.182-20.661 3.481-.368 1.035 9.802-.881-1.146a5.225 5.225 0 0 1 2.026-2.41c.947-.626 2.071-1.007 3.37-1.145Z"/>
</svg>
