<svg xmlns="http://www.w3.org/2000/svg" xmlns:xlink="http://www.w3.org/1999/xlink" width="149" zoomAndPan="magnify" viewBox="0 0 111.75 30.000001" height="40" preserveAspectRatio="xMidYMid meet" version="1.0"><defs><g/><clipPath id="508f5b8593"><path d="M 8.625 3.003906 L 31.851562 3.003906 L 31.851562 26.230469 L 8.625 26.230469 Z M 8.625 3.003906 " clip-rule="nonzero"/></clipPath></defs><g clip-path="url(#508f5b8593)"><path fill="#0072ff" d="M 20.238281 3.003906 C 19.472656 3.003906 18.71875 3.078125 17.972656 3.226562 C 17.222656 3.378906 16.496094 3.597656 15.792969 3.890625 C 15.089844 4.179688 14.417969 4.539062 13.785156 4.960938 C 13.152344 5.386719 12.5625 5.867188 12.023438 6.40625 C 11.484375 6.945312 11.003906 7.53125 10.582031 8.167969 C 10.15625 8.800781 9.800781 9.46875 9.507812 10.175781 C 9.214844 10.878906 8.996094 11.605469 8.847656 12.351562 C 8.699219 13.101562 8.625 13.855469 8.625 14.617188 C 8.625 15.378906 8.699219 16.136719 8.847656 16.882812 C 8.996094 17.632812 9.214844 18.359375 9.507812 19.0625 C 9.800781 19.765625 10.15625 20.4375 10.582031 21.070312 C 11.003906 21.703125 11.484375 22.289062 12.023438 22.828125 C 12.5625 23.367188 13.152344 23.851562 13.785156 24.273438 C 14.417969 24.699219 15.089844 25.054688 15.792969 25.347656 C 16.496094 25.640625 17.222656 25.859375 17.972656 26.007812 C 18.71875 26.15625 19.472656 26.230469 20.238281 26.230469 C 21 26.230469 21.753906 26.15625 22.503906 26.007812 C 23.25 25.859375 23.976562 25.640625 24.679688 25.347656 C 25.386719 25.054688 26.054688 24.699219 26.6875 24.273438 C 27.324219 23.851562 27.910156 23.367188 28.449219 22.828125 C 28.988281 22.289062 29.46875 21.703125 29.890625 21.070312 C 30.316406 20.4375 30.675781 19.765625 30.964844 19.0625 C 31.257812 18.359375 31.476562 17.632812 31.625 16.882812 C 31.773438 16.136719 31.851562 15.378906 31.851562 14.617188 C 31.851562 13.855469 31.773438 13.101562 31.625 12.351562 C 31.476562 11.605469 31.257812 10.878906 30.964844 10.175781 C 30.675781 9.46875 30.316406 8.800781 29.890625 8.167969 C 29.46875 7.53125 28.988281 6.945312 28.449219 6.40625 C 27.910156 5.867188 27.324219 5.386719 26.6875 4.960938 C 26.054688 4.539062 25.386719 4.179688 24.679688 3.890625 C 23.976562 3.597656 23.25 3.378906 22.503906 3.226562 C 21.753906 3.078125 21 3.003906 20.238281 3.003906 Z M 21.894531 18.671875 C 21.792969 18.683594 21.691406 18.679688 21.589844 18.648438 C 21.488281 18.621094 21.398438 18.570312 21.320312 18.503906 C 21.238281 18.433594 21.175781 18.351562 21.132812 18.257812 C 21.089844 18.160156 21.066406 18.0625 21.066406 17.957031 L 21.066406 16.050781 C 21.066406 15.882812 21.117188 15.734375 21.21875 15.605469 C 21.324219 15.472656 21.457031 15.390625 21.617188 15.351562 C 21.925781 15.28125 22.207031 15.160156 22.46875 14.980469 C 22.730469 14.804688 22.949219 14.585938 23.125 14.324219 C 23.300781 14.0625 23.425781 13.78125 23.492188 13.472656 C 23.5625 13.164062 23.574219 12.855469 23.523438 12.546875 C 23.476562 12.234375 23.375 11.941406 23.214844 11.671875 C 23.054688 11.398438 22.851562 11.164062 22.605469 10.96875 C 22.359375 10.777344 22.082031 10.632812 21.78125 10.542969 C 21.480469 10.453125 21.171875 10.417969 20.859375 10.445312 C 20.542969 10.472656 20.246094 10.554688 19.964844 10.695312 C 19.683594 10.832031 19.433594 11.019531 19.222656 11.253906 C 19.011719 11.488281 18.851562 11.75 18.738281 12.042969 C 18.628906 12.339844 18.574219 12.644531 18.578125 12.960938 L 18.578125 20.839844 C 18.578125 21.003906 18.546875 21.164062 18.484375 21.316406 C 18.417969 21.46875 18.328125 21.601562 18.214844 21.71875 C 18.097656 21.835938 17.960938 21.925781 17.808594 21.988281 C 17.65625 22.050781 17.5 22.082031 17.332031 22.082031 L 16.503906 22.082031 C 16.339844 22.082031 16.179688 22.050781 16.027344 21.988281 C 15.875 21.925781 15.742188 21.835938 15.625 21.71875 C 15.507812 21.601562 15.417969 21.46875 15.355469 21.316406 C 15.292969 21.164062 15.261719 21.003906 15.261719 20.839844 L 15.261719 13.109375 C 15.253906 12.734375 15.285156 12.363281 15.351562 11.996094 C 15.417969 11.625 15.519531 11.269531 15.65625 10.917969 C 15.789062 10.570312 15.957031 10.238281 16.152344 9.917969 C 16.351562 9.601562 16.578125 9.304688 16.832031 9.03125 C 17.085938 8.757812 17.363281 8.507812 17.664062 8.289062 C 17.964844 8.066406 18.285156 7.875 18.625 7.714844 C 18.960938 7.550781 19.3125 7.425781 19.671875 7.332031 C 20.035156 7.238281 20.402344 7.175781 20.777344 7.152344 C 21.136719 7.148438 21.496094 7.175781 21.851562 7.238281 C 22.207031 7.300781 22.550781 7.394531 22.890625 7.523438 C 23.226562 7.648438 23.550781 7.804688 23.859375 7.992188 C 24.167969 8.179688 24.457031 8.394531 24.726562 8.632812 C 24.992188 8.875 25.238281 9.136719 25.457031 9.425781 C 25.675781 9.710938 25.867188 10.015625 26.03125 10.335938 C 26.195312 10.65625 26.324219 10.992188 26.425781 11.339844 C 26.527344 11.683594 26.59375 12.039062 26.628906 12.398438 C 26.664062 12.753906 26.664062 13.113281 26.632812 13.472656 C 26.601562 13.832031 26.535156 14.1875 26.4375 14.535156 C 26.339844 14.882812 26.210938 15.214844 26.050781 15.539062 C 25.890625 15.863281 25.703125 16.167969 25.484375 16.457031 C 25.269531 16.742188 25.027344 17.007812 24.757812 17.253906 C 24.492188 17.496094 24.207031 17.710938 23.898438 17.898438 C 23.589844 18.089844 23.269531 18.25 22.933594 18.378906 C 22.597656 18.507812 22.25 18.605469 21.894531 18.671875 Z M 21.894531 18.671875 " fill-opacity="1" fill-rule="nonzero"/></g><g fill="#000000" fill-opacity="1"><g transform="translate(36.524398, 18.584215)"><g><path d="M 5.328125 -10.3125 C 6.066406 -10.3125 6.695312 -10.175781 7.21875 -9.90625 C 7.75 -9.632812 8.144531 -9.253906 8.40625 -8.765625 C 8.675781 -8.285156 8.8125 -7.722656 8.8125 -7.078125 C 8.8125 -6.429688 8.675781 -5.863281 8.40625 -5.375 C 8.144531 -4.894531 7.75 -4.519531 7.21875 -4.25 C 6.695312 -3.976562 6.066406 -3.84375 5.328125 -3.84375 L 3.375 -3.84375 L 3.375 0 L 1.34375 0 L 1.34375 -10.3125 Z M 5.0625 -5.46875 C 6.195312 -5.46875 6.765625 -6.003906 6.765625 -7.078125 C 6.765625 -8.160156 6.195312 -8.703125 5.0625 -8.703125 L 3.375 -8.703125 L 3.375 -5.46875 Z M 5.0625 -5.46875 "/></g></g></g><g fill="#000000" fill-opacity="1"><g transform="translate(45.950878, 18.584215)"><g><path d="M 3.03125 0.140625 C 2.53125 0.140625 2.097656 0.0507812 1.734375 -0.125 C 1.367188 -0.3125 1.085938 -0.582031 0.890625 -0.9375 C 0.691406 -1.289062 0.59375 -1.71875 0.59375 -2.21875 C 0.59375 -2.675781 0.691406 -3.0625 0.890625 -3.375 C 1.085938 -3.6875 1.390625 -3.941406 1.796875 -4.140625 C 2.210938 -4.347656 2.757812 -4.503906 3.4375 -4.609375 C 3.894531 -4.679688 4.242188 -4.757812 4.484375 -4.84375 C 4.734375 -4.9375 4.898438 -5.039062 4.984375 -5.15625 C 5.066406 -5.269531 5.109375 -5.414062 5.109375 -5.59375 C 5.109375 -5.84375 5.019531 -6.03125 4.84375 -6.15625 C 4.675781 -6.289062 4.390625 -6.359375 3.984375 -6.359375 C 3.546875 -6.359375 3.128906 -6.257812 2.734375 -6.0625 C 2.347656 -5.875 2.015625 -5.625 1.734375 -5.3125 L 1.59375 -5.3125 L 0.765625 -6.546875 C 1.160156 -6.984375 1.640625 -7.320312 2.203125 -7.5625 C 2.773438 -7.8125 3.398438 -7.9375 4.078125 -7.9375 C 5.109375 -7.9375 5.851562 -7.71875 6.3125 -7.28125 C 6.769531 -6.84375 7 -6.21875 7 -5.40625 L 7 -2.03125 C 7 -1.6875 7.15625 -1.515625 7.46875 -1.515625 C 7.582031 -1.515625 7.695312 -1.535156 7.8125 -1.578125 L 7.90625 -1.546875 L 8.046875 -0.1875 C 7.941406 -0.113281 7.789062 -0.0507812 7.59375 0 C 7.40625 0.0390625 7.195312 0.0625 6.96875 0.0625 C 6.5 0.0625 6.132812 -0.0234375 5.875 -0.203125 C 5.613281 -0.390625 5.425781 -0.671875 5.3125 -1.046875 L 5.171875 -1.0625 C 4.785156 -0.257812 4.070312 0.140625 3.03125 0.140625 Z M 3.65625 -1.3125 C 4.101562 -1.3125 4.460938 -1.460938 4.734375 -1.765625 C 5.003906 -2.066406 5.140625 -2.488281 5.140625 -3.03125 L 5.140625 -3.828125 L 5.015625 -3.859375 C 4.890625 -3.765625 4.734375 -3.679688 4.546875 -3.609375 C 4.359375 -3.546875 4.082031 -3.488281 3.71875 -3.4375 C 3.300781 -3.363281 3 -3.238281 2.8125 -3.0625 C 2.625 -2.894531 2.53125 -2.648438 2.53125 -2.328125 C 2.53125 -1.992188 2.628906 -1.738281 2.828125 -1.5625 C 3.023438 -1.394531 3.300781 -1.3125 3.65625 -1.3125 Z M 3.65625 -1.3125 "/></g></g></g><g fill="#000000" fill-opacity="1"><g transform="translate(54.156734, 18.584215)"><g><path d="M 1.71875 3.296875 C 1.382812 3.296875 1.082031 3.269531 0.8125 3.21875 C 0.539062 3.164062 0.320312 3.097656 0.15625 3.015625 L 0.46875 1.4375 L 0.59375 1.390625 C 0.707031 1.453125 0.851562 1.503906 1.03125 1.546875 C 1.207031 1.585938 1.382812 1.609375 1.5625 1.609375 C 1.882812 1.609375 2.148438 1.566406 2.359375 1.484375 C 2.566406 1.398438 2.742188 1.257812 2.890625 1.0625 C 3.035156 0.875 3.164062 0.613281 3.28125 0.28125 L 0.171875 -7.78125 L 2.21875 -7.78125 L 4.15625 -2.375 L 4.3125 -2.375 L 6.203125 -7.78125 L 8.1875 -7.78125 L 5.0625 0.484375 C 4.8125 1.148438 4.535156 1.6875 4.234375 2.09375 C 3.941406 2.5 3.59375 2.800781 3.1875 3 C 2.78125 3.195312 2.289062 3.296875 1.71875 3.296875 Z M 1.71875 3.296875 "/></g></g></g><g fill="#000000" fill-opacity="1"><g transform="translate(62.51074, 18.584215)"><g><path d="M 6.53125 0 L 0.40625 0 L 0.40625 -1.609375 L 4.171875 -6.09375 L 4.140625 -6.234375 L 0.578125 -6.234375 L 0.578125 -7.796875 L 6.484375 -7.796875 L 6.484375 -6.171875 L 2.703125 -1.703125 L 2.765625 -1.546875 L 6.53125 -1.546875 Z M 6.53125 0 "/></g></g></g><g fill="#000000" fill-opacity="1"><g transform="translate(69.453597, 18.584215)"><g><path d="M 1.71875 3.296875 C 1.382812 3.296875 1.082031 3.269531 0.8125 3.21875 C 0.539062 3.164062 0.320312 3.097656 0.15625 3.015625 L 0.46875 1.4375 L 0.59375 1.390625 C 0.707031 1.453125 0.851562 1.503906 1.03125 1.546875 C 1.207031 1.585938 1.382812 1.609375 1.5625 1.609375 C 1.882812 1.609375 2.148438 1.566406 2.359375 1.484375 C 2.566406 1.398438 2.742188 1.257812 2.890625 1.0625 C 3.035156 0.875 3.164062 0.613281 3.28125 0.28125 L 0.171875 -7.78125 L 2.21875 -7.78125 L 4.15625 -2.375 L 4.3125 -2.375 L 6.203125 -7.78125 L 8.1875 -7.78125 L 5.0625 0.484375 C 4.8125 1.148438 4.535156 1.6875 4.234375 2.09375 C 3.941406 2.5 3.59375 2.800781 3.1875 3 C 2.78125 3.195312 2.289062 3.296875 1.71875 3.296875 Z M 1.71875 3.296875 "/></g></g></g><g fill="#000000" fill-opacity="1"><g transform="translate(77.807603, 18.584215)"><g><path d="M 1.125 0 L 1.125 -7.78125 L 3.015625 -7.78125 L 3.015625 -6.625 L 3.171875 -6.59375 C 3.359375 -7.03125 3.601562 -7.347656 3.90625 -7.546875 C 4.21875 -7.753906 4.59375 -7.859375 5.03125 -7.859375 C 5.46875 -7.859375 5.800781 -7.78125 6.03125 -7.625 L 5.703125 -5.9375 L 5.546875 -5.90625 C 5.421875 -5.957031 5.300781 -5.992188 5.1875 -6.015625 C 5.070312 -6.046875 4.925781 -6.0625 4.75 -6.0625 C 4.207031 -6.0625 3.789062 -5.867188 3.5 -5.484375 C 3.21875 -5.097656 3.078125 -4.484375 3.078125 -3.640625 L 3.078125 0 Z M 1.125 0 "/></g></g></g><g fill="#000000" fill-opacity="1"><g transform="translate(83.910846, 18.584215)"><g><path d="M 3.03125 0.140625 C 2.53125 0.140625 2.097656 0.0507812 1.734375 -0.125 C 1.367188 -0.3125 1.085938 -0.582031 0.890625 -0.9375 C 0.691406 -1.289062 0.59375 -1.71875 0.59375 -2.21875 C 0.59375 -2.675781 0.691406 -3.0625 0.890625 -3.375 C 1.085938 -3.6875 1.390625 -3.941406 1.796875 -4.140625 C 2.210938 -4.347656 2.757812 -4.503906 3.4375 -4.609375 C 3.894531 -4.679688 4.242188 -4.757812 4.484375 -4.84375 C 4.734375 -4.9375 4.898438 -5.039062 4.984375 -5.15625 C 5.066406 -5.269531 5.109375 -5.414062 5.109375 -5.59375 C 5.109375 -5.84375 5.019531 -6.03125 4.84375 -6.15625 C 4.675781 -6.289062 4.390625 -6.359375 3.984375 -6.359375 C 3.546875 -6.359375 3.128906 -6.257812 2.734375 -6.0625 C 2.347656 -5.875 2.015625 -5.625 1.734375 -5.3125 L 1.59375 -5.3125 L 0.765625 -6.546875 C 1.160156 -6.984375 1.640625 -7.320312 2.203125 -7.5625 C 2.773438 -7.8125 3.398438 -7.9375 4.078125 -7.9375 C 5.109375 -7.9375 5.851562 -7.71875 6.3125 -7.28125 C 6.769531 -6.84375 7 -6.21875 7 -5.40625 L 7 -2.03125 C 7 -1.6875 7.15625 -1.515625 7.46875 -1.515625 C 7.582031 -1.515625 7.695312 -1.535156 7.8125 -1.578125 L 7.90625 -1.546875 L 8.046875 -0.1875 C 7.941406 -0.113281 7.789062 -0.0507812 7.59375 0 C 7.40625 0.0390625 7.195312 0.0625 6.96875 0.0625 C 6.5 0.0625 6.132812 -0.0234375 5.875 -0.203125 C 5.613281 -0.390625 5.425781 -0.671875 5.3125 -1.046875 L 5.171875 -1.0625 C 4.785156 -0.257812 4.070312 0.140625 3.03125 0.140625 Z M 3.65625 -1.3125 C 4.101562 -1.3125 4.460938 -1.460938 4.734375 -1.765625 C 5.003906 -2.066406 5.140625 -2.488281 5.140625 -3.03125 L 5.140625 -3.828125 L 5.015625 -3.859375 C 4.890625 -3.765625 4.734375 -3.679688 4.546875 -3.609375 C 4.359375 -3.546875 4.082031 -3.488281 3.71875 -3.4375 C 3.300781 -3.363281 3 -3.238281 2.8125 -3.0625 C 2.625 -2.894531 2.53125 -2.648438 2.53125 -2.328125 C 2.53125 -1.992188 2.628906 -1.738281 2.828125 -1.5625 C 3.023438 -1.394531 3.300781 -1.3125 3.65625 -1.3125 Z M 3.65625 -1.3125 "/></g></g></g></svg>
