<svg width="401" height="269" viewBox="0 0 401 269" fill="none" xmlns="http://www.w3.org/2000/svg">
  <rect y="40" width="378.823" height="230" rx="24" transform="rotate(-6.02864 0 40)" fill="#27346A"/>
  <g opacity="0.6">
    <mask id="mask0_3183_15107" style="mask-type:alpha" maskUnits="userSpaceOnUse" x="3" y="3" width="395" height="263">
      <rect y="40" width="378.823" height="230" rx="24" transform="rotate(-6.02864 0 40)" fill="#FF9900"/>
    </mask>
    <g mask="url(#mask0_3183_15107)">
      <path d="M110.303 -281.317C28.1394 -260.812 -12.4108 -137.845 -2.03289 -49.7747C9.93693 51.7154 86.6588 82.3403 72.7207 162.009C60.0257 234.709 -10.3988 246.351 -16.0873 299.413C-21.3128 348.178 29.4988 419.102 254.703 521.045" stroke="#222F65" stroke-width="1.5" stroke-miterlimit="10"/>
      <path d="M263.474 514.125C41.495 413.369 -10.9762 342.576 -7.72174 293.336C-5.26089 256.836 27.6904 239.39 51.6266 208.507C63.9943 193.049 72.3286 174.762 75.8814 155.289C87.5672 91.4972 43.3479 58.88 19.0673 -5.40495C12.8274 -21.7852 8.53508 -38.842 6.27874 -56.2244C-5.47557 -144.513 28.1611 -265.426 107.096 -287.423" stroke="#222F65" stroke-width="1.5" stroke-miterlimit="10"/>
      <path d="M272.216 507.193C53.4763 407.623 -0.635515 337.003 0.672867 287.386C1.63772 250.914 32.8618 232.82 55.4247 202.025C67.259 186.284 75.3423 168.049 79.0584 148.712C91.1406 85.7803 50.9236 52.755 27.4246 -11.8453C21.4172 -28.2585 17.1259 -45.2495 14.6194 -62.5466C1.76066 -151.097 28.1975 -269.911 103.905 -293.4" stroke="#222F65" stroke-width="1.5" stroke-miterlimit="10"/>
      <path d="M280.929 500.279C65.4751 401.919 9.73246 331.427 9.04553 281.381C8.54013 244.904 38.0143 226.224 59.2137 195.471C70.51 179.479 78.3495 161.31 82.2323 142.121C94.7049 79.992 58.4895 46.6896 35.779 -18.2994C29.9654 -34.7491 25.6579 -51.6926 22.9094 -68.9212C8.78938 -157.702 28.1847 -274.434 100.664 -299.416" stroke="#222F65" stroke-width="1.5" stroke-miterlimit="10"/>
      <path d="M289.716 493.357C77.4577 396.187 20.1192 325.879 17.4323 275.36C15.4756 238.919 43.1922 219.582 62.9866 188.89C73.7504 172.635 81.3532 154.499 85.3969 135.429C98.2599 74.103 66.056 40.4788 44.1164 -24.9263C38.5401 -41.3824 34.2394 -58.2433 31.2522 -75.3595C15.8694 -164.385 28.2375 -279.037 97.487 -305.525" stroke="#222F65" stroke-width="1.5" stroke-miterlimit="10"/>
      <path d="M298.479 486.496C89.4408 390.47 29.1042 320.434 25.8037 269.34C23.4076 232.873 48.2684 212.95 66.7758 182.335C76.9859 165.829 84.3514 147.726 88.565 128.781C101.818 68.257 73.6289 34.3397 52.4853 -31.3822C47.1069 -47.8536 42.7953 -64.6542 39.5772 -81.6798C22.874 -170.944 28.2582 -283.52 94.294 -311.502" stroke="#222F65" stroke-width="1.5" stroke-miterlimit="10"/>
      <path d="M307.229 479.505C101.438 384.736 40.9923 314.771 34.1057 263.342C29.4237 227.001 53.429 206.28 70.5791 175.765C80.2329 159.024 87.3661 140.951 91.7486 122.131C105.392 62.4094 81.1984 28.1574 60.8493 -37.8958C55.6861 -54.3854 51.3727 -71.1291 47.9261 -88.0609C29.9602 -177.57 28.2596 -288.059 91.1105 -317.538" stroke="#222F65" stroke-width="1.5" stroke-miterlimit="10"/>
      <path d="M315.986 472.587C113.424 379.048 51.351 309.24 42.5639 257.314C36.376 221.044 58.4563 199.595 74.3529 169.198C83.4412 152.236 90.3368 134.187 94.874 115.487C108.924 56.581 88.7543 21.9913 69.155 -44.4029C64.6129 -59.8536 60.0734 -76.3811 56.2024 -94.434C36.9289 -184.198 28.3034 -292.603 87.8975 -323.57" stroke="#222F65" stroke-width="1.5" stroke-miterlimit="10"/>
      <path d="M324.743 465.668C125.418 373.286 61.8682 303.692 50.9085 251.312C43.3428 215.085 63.4966 192.895 78.1093 162.604C86.6262 145.42 93.3014 127.384 98.0236 108.797C112.464 50.6933 96.2786 15.7993 77.4995 -50.958C73.1224 -66.4988 68.6163 -82.9862 64.5158 -100.869C43.9629 -190.76 28.333 -297.145 84.6846 -329.603" stroke="#222F65" stroke-width="1.5" stroke-miterlimit="10"/>
      <path d="M333.485 458.736C137.4 367.554 72.357 298.147 59.3239 245.287C50.3963 209.117 68.5585 186.119 81.9168 156.077C89.8585 138.694 96.3183 120.672 101.227 102.202C116.057 44.8872 103.883 9.67135 85.8246 -57.4239C81.6203 -72.983 77.1126 -89.4847 72.797 -107.2C50.87 -197.425 28.2766 -301.678 81.4145 -335.63" stroke="#222F65" stroke-width="1.5" stroke-miterlimit="10"/>
      <path d="M342.241 451.818C149.383 361.837 82.8733 292.599 67.6994 239.311C57.4243 203.196 73.5721 179.45 85.7216 149.536C93.0673 131.959 99.305 113.939 104.398 95.5826C119.619 39.0846 111.442 3.5484 94.2477 -63.9145C90.2372 -79.5667 85.7198 -96.0238 81.205 -113.558C57.9145 -204.018 28.3817 -306.185 78.2886 -341.657" stroke="#222F65" stroke-width="1.5" stroke-miterlimit="10"/>
      <path d="M350.998 444.899C161.38 356.104 93.3878 287.022 76.0686 233.262C64.4588 197.187 78.562 172.682 89.5087 142.953C95.7948 125.864 102.112 108.379 107.564 88.9055C123.161 33.2115 119.01 -2.64798 102.594 -70.4549C98.7661 -86.1701 94.2373 -102.597 89.5188 -119.993C64.8647 -210.687 28.3912 -310.782 75.0859 -347.735" stroke="#222F65" stroke-width="1.5" stroke-miterlimit="10"/>
      <path d="M359.756 437.98C173.42 350.365 103.941 281.543 84.4565 227.255C71.4977 191.22 83.5229 165.916 93.297 136.384C99.0672 118.957 105.15 101.453 110.733 82.2563C126.763 27.3604 126.568 -8.80053 110.943 -76.9675C107.312 -92.7471 102.77 -109.158 97.8414 -126.343C71.7966 -217.254 28.4095 -315.295 71.8906 -353.741" stroke="#222F65" stroke-width="1.5" stroke-miterlimit="10"/>
      <path d="M368.516 431.09C185.36 344.653 114.493 275.904 92.8448 221.249C78.5801 185.25 88.4697 159.153 97.1001 129.814C102.324 112.038 108.187 94.5278 113.922 75.6641C130.298 21.5609 134.161 -14.8975 119.321 -83.482C115.857 -99.3374 111.305 -115.704 106.19 -132.723C78.7243 -223.862 28.4251 -319.835 68.6925 -359.775" stroke="#222F65" stroke-width="1.5" stroke-miterlimit="10"/>
      <path d="M377.255 424.129C197.343 338.92 125.084 270.362 101.217 215.228C85.6303 179.253 93.3715 152.379 100.876 123.261C105.539 105.136 111.209 87.5886 117.071 68.9588C133.84 15.687 141.696 -21.1205 127.656 -89.9931C124.096 -106.58 119.688 -122.974 114.451 -139.11C85.6387 -230.456 28.4647 -324.423 65.4798 -365.808" stroke="#222F65" stroke-width="1.5" stroke-miterlimit="10"/>
      <path d="M386.011 417.211C209.338 333.187 135.619 264.711 109.594 209.266C92.7003 173.312 98.2628 145.651 104.662 116.679C108.75 98.2069 114.23 80.6503 120.239 62.3105C137.397 9.82685 149.266 -27.2881 136.008 -96.476C132.666 -113.071 128.26 -129.434 122.816 -145.463C92.4661 -237.04 28.4838 -328.92 62.2216 -371.851" stroke="#222F65" stroke-width="1.5" stroke-miterlimit="10"/>
      <path d="M394.769 410.292C221.323 327.47 146.256 259.049 117.962 203.204C99.793 167.297 103.118 138.839 108.438 110.126C111.937 91.3093 117.27 73.7391 123.41 55.6764C140.96 4.00975 156.825 -33.4399 144.354 -103.017C141.214 -119.618 136.794 -135.951 131.133 -151.87C99.3973 -243.62 28.5143 -333.462 59.0817 -377.891" stroke="#222F65" stroke-width="1.5" stroke-miterlimit="10"/>
      <path d="M403.525 403.359C233.377 321.73 156.86 253.506 126.35 197.196C106.869 161.268 107.947 132.073 112.228 103.571C115.102 84.3551 120.293 66.8146 126.578 49.0275C144.49 -1.83353 164.396 -39.5936 152.718 -109.53C149.769 -126.134 145.334 -142.439 139.467 -158.25C106.27 -250.195 28.5291 -338.003 55.8828 -383.926" stroke="#222F65" stroke-width="1.5" stroke-miterlimit="10"/>
      <path d="M412.282 396.44C245.309 316.077 167.485 247.874 134.78 191.171C114.018 155.247 112.822 125.317 116.102 96.994C118.406 77.4743 123.414 59.8512 129.833 42.3701C148.164 -7.69147 172.053 -45.7703 161.124 -116.048C158.368 -132.654 153.918 -148.934 147.844 -164.633C113.171 -256.772 28.6376 -342.626 52.742 -389.966" stroke="#222F65" stroke-width="1.5" stroke-miterlimit="10"/>
      <path d="M421.039 389.521C257.3 310.286 178.109 242.228 143.11 185.17C121.051 149.224 117.552 118.576 119.804 90.4348C121.404 70.5821 126.367 52.9493 132.944 35.7278C151.667 -13.5168 179.553 -51.916 169.445 -122.557C166.888 -139.166 162.422 -155.424 156.135 -171.008C119.945 -263.321 28.5742 -347.085 49.4862 -395.994" stroke="#222F65" stroke-width="1.5" stroke-miterlimit="10"/>
      <path d="M429.78 382.59C269.281 304.554 188.804 236.573 151.488 179.208C128.161 143.25 122.333 111.903 123.6 83.938C124.509 63.7508 129.396 46.0823 136.077 29.1554C155.203 -19.3025 187.101 -58.0235 177.771 -129.008C175.399 -145.621 170.915 -161.862 164.43 -177.34C126.615 -269.743 28.6096 -351.57 46.2761 -401.998" stroke="#222F65" stroke-width="1.5" stroke-miterlimit="10"/>
      <path d="M438.539 375.686C183.298 250.991 126.596 149.788 127.382 77.3124C128.238 -1.80406 197.636 -39.2917 186.128 -135.579C172.613 -248.53 26.172 -347.37 43.0747 -408.061" stroke="#222F65" stroke-width="1.5" stroke-miterlimit="10"/>
    </g>
  </g>
  <g opacity="0.3">
    <path opacity="0.2" d="M170.466 67.2487L215.715 62.4689L191.62 50.9362L170.466 67.2487Z" fill="white"/>
    <path d="M170.466 67.2487L215.715 62.4689L191.62 50.9362L170.466 67.2487Z" stroke="white" stroke-width="2" stroke-linecap="round" stroke-linejoin="round"/>
    <path d="M177.427 66.5133L179.266 83.9165" stroke="white" stroke-width="2" stroke-linecap="round" stroke-linejoin="round"/>
    <path d="M187.869 65.4103L189.708 82.8134" stroke="white" stroke-width="2" stroke-linecap="round" stroke-linejoin="round"/>
    <path d="M198.311 64.3073L200.149 81.7104" stroke="white" stroke-width="2" stroke-linecap="round" stroke-linejoin="round"/>
    <path d="M208.753 63.2042L210.591 80.6074" stroke="white" stroke-width="2" stroke-linecap="round" stroke-linejoin="round"/>
    <path d="M174.045 84.468L215.813 80.0559" stroke="white" stroke-width="2" stroke-linecap="round" stroke-linejoin="round"/>
    <path d="M171.299 91.7969L220.028 86.6495" stroke="white" stroke-width="2" stroke-linecap="round" stroke-linejoin="round"/>
  </g>
  <g clip-path="url(#clip0_3183_15107)">
    <path d="M178.763 177.708L167.586 178.889C166.822 178.97 166.23 179.594 166.19 180.362L164.697 209.5C164.667 210.075 165.159 210.539 165.733 210.478L171.069 209.914C171.834 209.834 172.425 209.209 172.465 208.44L172.867 200.581C172.905 199.812 173.498 199.187 174.262 199.107L177.8 198.733C185.162 197.955 189.035 193.943 189.399 186.766C189.573 183.624 188.838 181.248 187.212 179.701C185.426 178.002 182.504 177.313 178.763 177.708ZM181.159 188.04C180.971 192.115 177.907 192.439 174.944 192.752L173.257 192.93L173.649 185.315C173.672 184.855 174.029 184.48 174.486 184.431L175.259 184.35C177.278 184.137 179.182 183.935 180.287 184.982C180.946 185.606 181.234 186.607 181.159 188.04Z" fill="white"/>
    <path d="M213.266 184.517L207.914 185.083C207.458 185.131 207.099 185.506 207.077 185.966L206.998 187.488L206.566 186.985C205.23 185.426 202.587 185.137 200.008 185.409C194.093 186.034 189.515 191.047 189.195 197.435C189.014 200.624 190.058 203.544 192.057 205.447C193.891 207.196 196.309 207.751 199.086 207.457C203.852 206.954 206.171 203.61 206.171 203.61L206.089 205.123C206.059 205.701 206.551 206.165 207.122 206.104L211.943 205.595C212.709 205.514 213.298 204.89 213.339 204.121L214.296 185.496C214.328 184.923 213.838 184.457 213.266 184.517ZM206.906 195.723C206.712 198.835 204.502 201.144 201.407 201.471C199.853 201.635 198.558 201.268 197.661 200.408C196.77 199.553 196.329 198.25 196.423 196.736C196.585 193.653 198.829 191.273 201.877 190.951C203.397 190.79 204.686 191.165 205.6 192.032C206.518 192.908 206.983 194.217 206.906 195.723Z" fill="white"/>
    <path d="M241.772 181.506L236.393 182.074C235.88 182.129 235.425 182.434 235.179 182.892L228.915 194.602L224.661 184.434C224.394 183.798 223.74 183.411 223.054 183.483L217.768 184.042C217.126 184.11 216.746 184.784 217.014 185.367L224.775 202.127L220.036 210.578C219.664 211.244 220.195 212.049 220.952 211.969L226.324 211.402C226.833 211.348 227.284 211.049 227.53 210.6L242.691 182.888C243.054 182.225 242.525 181.427 241.772 181.506Z" fill="white"/>
    <path d="M258.487 169.287L247.308 170.467C246.545 170.548 245.953 171.172 245.914 171.94L244.421 201.079C244.39 201.654 244.882 202.117 245.453 202.057L251.189 201.451C251.722 201.395 252.137 200.958 252.164 200.419L252.589 192.16C252.627 191.39 253.22 190.766 253.983 190.685L257.52 190.312C264.884 189.534 268.755 185.522 269.121 178.345C269.296 175.203 268.558 172.827 266.932 171.28C265.148 169.581 262.228 168.891 258.487 169.287ZM260.882 179.618C260.696 183.693 257.632 184.017 254.667 184.33L252.982 184.508L253.376 176.893C253.398 176.433 253.752 176.058 254.211 176.01L254.984 175.928C257.001 175.715 258.907 175.514 260.012 176.56C260.671 177.185 260.957 178.186 260.882 179.618Z" fill="#179BD7"/>
    <path d="M292.988 176.096L287.638 176.661C287.179 176.71 286.824 177.084 286.803 177.544L286.724 179.066L286.291 178.563C284.955 177.004 282.313 176.715 279.734 176.987C273.819 177.612 269.243 182.625 268.923 189.013C268.744 192.201 269.784 195.122 271.783 197.025C273.621 198.774 276.036 199.329 278.813 199.035C283.578 198.532 285.897 195.188 285.897 195.188L285.816 196.701C285.786 197.279 286.278 197.743 286.851 197.682L291.671 197.173C292.434 197.092 293.026 196.468 293.065 195.699L294.025 177.074C294.053 176.501 293.561 176.036 292.988 176.096ZM286.627 187.301C286.437 190.413 284.224 192.723 281.128 193.05C279.577 193.214 278.279 192.847 277.382 191.986C276.492 191.132 276.054 189.828 276.145 188.314C276.31 185.232 278.551 182.851 281.599 182.529C283.118 182.369 284.407 182.743 285.322 183.61C286.242 184.486 286.708 185.796 286.627 187.301Z" fill="#179BD7"/>
    <path d="M298.288 165.877L296.784 195.547C296.754 196.122 297.246 196.586 297.816 196.525L302.428 196.038C303.195 195.957 303.786 195.333 303.824 194.564L305.32 165.427C305.35 164.852 304.858 164.386 304.288 164.447L299.124 164.992C298.668 165.042 298.311 165.417 298.288 165.877Z" fill="#179BD7"/>
    <path d="M118.983 221.048L119.264 215.529L117.356 215.686L108.264 216.646L110.35 175.917C110.357 175.794 110.409 175.675 110.494 175.585C110.578 175.495 110.693 175.438 110.817 175.425L126.147 173.805C131.236 173.268 134.86 173.956 136.915 175.852C137.878 176.742 138.534 177.709 138.918 178.809C139.321 179.963 139.475 181.376 139.386 183.129L139.379 183.257L139.496 184.361L140.407 184.758C141.172 185.065 141.793 185.444 142.288 185.901C143.112 186.662 143.7 187.677 144.034 188.919C144.379 190.196 144.474 191.75 144.319 193.536C144.139 195.591 143.69 197.411 142.986 198.937C142.338 200.342 141.45 201.545 140.348 202.52C139.296 203.448 138.009 204.204 136.523 204.757C135.083 205.299 133.415 205.672 131.563 205.868L130.37 205.994C129.517 206.084 128.721 206.479 128.129 207.098C127.536 207.729 127.186 208.543 127.142 209.397L127.104 209.895L126.605 219.624L126.573 219.982C126.567 220.095 126.542 220.154 126.5 220.197C126.463 220.235 126.406 220.264 126.349 220.27L118.983 221.048Z" fill="#253B80"/>
    <path opacity="0.6" d="M141.066 183.207C141.051 183.505 141.031 183.809 141.004 184.123C140.079 194.716 133.541 199.032 124.708 199.965L120.21 200.44C119.13 200.554 118.303 201.435 118.247 202.518L117.487 217.366L117.272 221.574C117.236 222.285 117.842 222.859 118.548 222.785L126.525 221.942C127.47 221.842 128.2 221.071 128.25 220.124L128.286 219.71L128.781 210.02L128.822 209.487C128.871 208.537 129.602 207.765 130.547 207.666L131.74 207.54C139.468 206.723 145.187 202.946 145.996 193.679C146.334 189.808 145.617 186.681 143.427 184.66C142.765 184.051 141.972 183.571 141.066 183.207Z" fill="white" fill-opacity="0.7"/>
    <path opacity="0.7" d="M138.862 182.588C138.544 182.53 138.217 182.482 137.882 182.443C137.546 182.406 137.202 182.378 136.85 182.359C135.617 182.291 134.278 182.338 132.855 182.488L120.839 183.758C120.543 183.789 120.269 183.886 120.03 184.033C119.505 184.358 119.148 184.926 119.116 185.579L118.27 202.038L118.247 202.519C118.303 201.435 119.13 200.555 120.21 200.44L124.708 199.965C133.541 199.032 140.079 194.714 141.004 184.123C141.032 183.809 141.051 183.505 141.066 183.207C140.526 182.99 139.947 182.817 139.33 182.682C139.178 182.648 139.021 182.617 138.862 182.588Z" fill="white"/>
    <path d="M119.117 185.579C119.148 184.926 119.505 184.358 120.031 184.035C120.271 183.887 120.544 183.79 120.84 183.759L132.855 182.49C134.279 182.34 135.617 182.292 136.851 182.36C137.203 182.379 137.546 182.408 137.882 182.445C138.217 182.484 138.544 182.532 138.863 182.589C139.021 182.619 139.178 182.65 139.332 182.682C139.949 182.816 140.528 182.992 141.068 183.207C141.264 179.308 140.382 176.76 138.058 174.615C135.497 172.253 131.253 171.574 125.972 172.132L110.642 173.751C109.564 173.865 108.726 174.747 108.672 175.832L106.563 216.98C106.521 217.794 107.215 218.451 108.023 218.366L117.487 217.366L118.271 202.038L119.117 185.579Z" fill="white"/>
  </g>
  <defs>
    <clipPath id="clip0_3183_15107">
      <rect width="204.085" height="68.504" fill="white" transform="translate(101.326 167.56) rotate(-6.03007)"/>
    </clipPath>
  </defs>
</svg>
