<svg xmlns="http://www.w3.org/2000/svg" width="598" height="364" fill="none">
  <rect width="280" height="170" x="22.252" fill="#F90" rx="24" transform="rotate(7.521 22.252 0)"/>
  <g opacity=".6">
    <mask id="a" width="294" height="199" x="3" y="3" maskUnits="userSpaceOnUse" style="mask-type:alpha">
      <rect width="280" height="170" x="22.252" fill="#F90" rx="24" transform="rotate(7.521 22.252 0)"/>
    </mask>
    <g stroke="#E7900E" stroke-miterlimit="10" stroke-width="1.5" mask="url(#a)">
      <path d="M157.155-211.783c-62.59.505-113.022 81.842-120.816 146.923-8.975 74.999 40.85 110.291 17.039 165.124-21.712 50.041-74.332 46.21-87.609 83.353-12.2 34.135 12.03 93.898 156.197 206.149"/>
      <path d="M129.468 386.313c-142.057-110.84-167.5-170.796-156.635-205.614 8.089-25.801 34.788-32.631 57.335-50.676a88.346 88.346 0 0 0 26.645-34.04c19.444-43.815-6.682-74.91-12.996-125.307a165.286 165.286 0 0 1-.389-38.731c6.843-65.476 51.952-146.534 112.481-148.671"/>
      <path d="M136.949 382.845C-2.985 273.419-29.638 213.303-20.105 177.878c7.01-26.041 32.579-33.635 54.124-51.856a95.593 95.593 0 0 0 26.215-34.216c19.58-43.127-3.6-73.822-9.297-124.31a187.083 187.083 0 0 1-.421-38.65c6.094-65.855 45.666-146.652 104.134-150.42"/>
      <path d="M144.408 379.386C6.625 271.398-21.222 211.093-13.048 175.013c5.953-26.299 30.367-34.617 50.926-53.044A104.15 104.15 0 0 0 63.657 87.62c19.721-42.483-.534-72.684-5.599-123.315a212.963 212.963 0 0 1-.481-38.604c5.229-66.239 39.38-146.759 95.787-152.158"/>
      <path d="M151.92 375.934C16.228 269.354-12.798 208.904-5.98 172.138c4.905-26.523 28.17-35.618 47.708-54.245A114.63 114.63 0 0 0 67.09 83.36c19.863-41.839 2.546-71.577-1.893-122.374a250.157 250.157 0 0 1-.51-38.466c4.364-66.634 33.106-146.876 87.453-153.917"/>
      <path d="M159.405 372.522C25.829 267.321-5.398 206.548 1.079 169.263c4.593-26.619 25.907-36.63 44.507-55.423a128.131 128.131 0 0 0 24.931-34.709C90.522 37.937 76.14 8.683 72.328-42.203a298.167 298.167 0 0 1-.565-38.377c3.456-67.034 26.82-146.994 79.117-155.665"/>
      <path d="M166.903 369.014C35.442 265.279 4.125 204.537 8.083 166.39c2.928-26.924 23.766-37.656 41.373-56.612a145.355 145.355 0 0 0 24.5-34.874c20.146-40.55 8.693-69.352 5.51-120.34a373.242 373.242 0 0 1-.599-38.283c2.591-67.429 20.503-147.116 70.77-157.414"/>
      <path d="M174.394 365.559C45.04 263.267 12.526 202.357 15.204 163.523c1.835-27.133 21.415-38.721 38.102-57.811a167.853 167.853 0 0 0 24.047-35.04C97.649 30.776 89.147 2.43 86.56-48.673c-.588-11.89-.988-24.551-.643-38.194 1.696-67.838 14.271-147.227 62.455-159.158"/>
      <path d="M181.884 362.104C54.656 261.204 21.044 200.192 22.24 160.656c.837-27.341 19.161-39.796 34.907-59.031a201.026 201.026 0 0 0 23.628-35.216C101.213 27.16 95.624-.717 93.692-51.938c-.454-11.924-.836-24.552-.686-38.112.798-68.151 7.991-147.301 54.103-160.866"/>
      <path d="M189.366 358.637C64.258 259.16 29.541 198.023 29.33 157.784c-.152-27.536 16.882-40.917 31.683-60.19a250.98 250.98 0 0 0 23.205-35.368C104.8 23.61 102.15-3.804 100.794-55.142c-.327-11.908-.708-24.546-.742-38.023-.13-68.629 1.689-147.454 45.751-162.648"/>
      <path d="M196.857 355.182C73.859 257.127 38.059 195.858 36.384 154.94c-1.13-27.73 14.586-41.996 28.496-61.387a337.3 337.3 0 0 0 22.764-35.534c20.721-37.962 20.999-64.912 20.327-116.366-.171-11.942-.567-24.55-.775-37.93-1.07-69.034-4.599-147.561 37.405-164.408"/>
      <path d="M204.347 351.727C83.473 255.085 46.58 193.672 43.445 152.043 41.35 124.11 55.727 108.945 68.74 89.478c7.477-11.19 15.044-22.66 22.334-35.71 20.852-37.317 24.079-63.803 24.026-115.37-.029-11.955-.439-24.542-.817-37.86-2.009-69.438-10.884-147.679 29.068-166.144"/>
      <path d="M211.838 348.272C93.118 253.047 55.112 191.562 50.512 149.179c-3.071-28.137 9.951-44.237 22.089-63.765 7.164-11.523 14.566-23.047 21.902-35.874 21.025-36.67 27.147-62.688 27.725-114.375.123-11.968-.298-24.546-.864-37.748-2.971-69.835-17.169-147.797 20.732-167.893"/>
      <path d="M219.326 344.838C102.687 251.01 63.67 189.338 57.579 146.316c-4.016-28.338 7.61-45.377 18.892-64.964 6.832-11.869 14.078-23.435 21.465-35.997 21.137-36.04 30.226-61.569 31.44-113.42.256-11.993-.18-24.542-.908-37.657-3.953-70.245-23.476-147.918 12.375-169.643"/>
      <path d="M226.81 341.35C112.289 248.966 72.24 187.19 64.638 143.44c-4.97-28.55 5.246-46.52 15.68-66.143 6.49-12.216 13.604-23.843 21.042-36.215C122.635 5.707 134.654-19.38 136.492-71.3a367.29 367.29 0 0 0-.983-37.58c-4.884-70.627-29.694-148.048 4.07-171.376"/>
      <path d="M234.301 337.895C121.902 246.924 80.789 184.953 71.691 140.607c-5.914-28.761 2.873-47.674 12.489-67.384 6.136-12.565 13.114-24.232 20.608-36.37 21.418-34.74 36.374-59.354 38.828-111.366a291.31 291.31 0 0 0-.995-37.484c-5.949-71.059-36.013-148.16-4.336-173.166"/>
      <path d="M241.792 334.44c-110.289-89.549-152.38-151.713-163.04-196.741-6.837-28.947.48-48.82 9.275-68.53 5.773-12.916 12.648-24.617 20.188-36.533 21.558-34.086 39.443-58.249 42.531-110.403a241.962 241.962 0 0 0-1.04-37.394c-6.915-71.423-42.29-148.255-12.632-174.886"/>
      <path d="M249.284 330.974C141.159 242.854 97.992 180.58 85.82 134.835c-7.777-29.19-1.946-49.982 6.066-69.72 5.393-13.31 12.16-25.015 19.757-36.708C133.321-5.038 154.164-28.723 157.884-81a208.04 208.04 0 0 0-1.085-37.303c-7.931-71.816-48.586-148.374-20.978-176.635"/>
      <path d="M256.774 327.519C150.712 240.858 106.602 178.373 92.92 131.965c-8.697-29.408-4.373-51.122 2.889-70.906 5.036-13.627 11.686-25.423 19.326-36.872 21.841-32.798 45.601-56.023 49.918-108.414.895-12.41.517-24.878-1.129-37.211-8.958-72.211-54.833-148.541-29.314-178.383"/>
      <path d="M264.265 324.064c-103.935-85.29-149.052-147.908-164.32-194.968-9.625-29.65-6.832-52.278-.34-72.109C104.192 43 110.812 31.188 118.52 19.953c21.981-32.143 48.669-54.906 53.638-107.416a161.38 161.38 0 0 0-1.173-37.12c-10.019-72.599-61.168-148.612-37.672-180.134"/>
      <path d="M271.747 320.597c-101.814-83.867-147.87-146.652-164.749-194.334-10.534-29.878-9.294-53.412-3.541-73.287 4.15-14.348 10.721-26.197 18.453-37.203 22.135-31.508 51.761-53.807 57.349-106.43a145.751 145.751 0 0 0-1.216-37.039c-11.171-72.946-67.423-148.715-45.995-181.891"/>
      <path d="M279.236 317.153C117.424 183.351 94.207 100.812 107.323 48.87c14.316-56.701 70.674-71.62 79.079-142.8 9.849-83.503-78.261-179.885-55.605-220.568"/>
    </g>
  </g>
  <g opacity=".2">
    <path stroke="#fff" stroke-linecap="round" stroke-linejoin="round" stroke-width="2" d="m171.701 58.44-31.353-4.14a1.437 1.437 0 0 0-1.613 1.238l-.753 5.7c-.104.787.45 1.51 1.237 1.613l31.353 4.14c.787.104 1.51-.45 1.613-1.237l.753-5.7a1.438 1.438 0 0 0-1.237-1.614Z"/>
    <path stroke="#fff" stroke-linecap="round" stroke-linejoin="round" stroke-width="2" d="m169.147 66.803-1.693 12.826a1.437 1.437 0 0 1-1.614 1.237l-25.652-3.387a1.438 1.438 0 0 1-1.237-1.613l1.693-12.827M156.025 56.37l-3.011 22.803M164.36 55.423c-2.296 1.745-8.335.947-8.335.947s.797-6.039 3.078-7.804a4.32 4.32 0 1 1 5.257 6.857v0ZM148.22 53.292c1.765 2.28 7.804 3.078 7.804 3.078s.798-6.039-.947-8.335a4.32 4.32 0 0 0-6.857 5.257v0Z"/>
    <path fill="#fff" d="m169.147 66.803-1.693 12.826a1.437 1.437 0 0 1-1.614 1.237l-25.652-3.387a1.438 1.438 0 0 1-1.237-1.613l1.693-12.827 28.503 3.764Z" opacity=".2"/>
  </g>
  <path fill="#fff" fill-rule="evenodd" d="M156.97 148.516c-.088-.175-.179-.347-.268-.518-.73-1.391-1.425-2.717-1.104-5.149l1.197-9.064.128-.938c.478-3.473.915-6.642-1.228-9.393-1.83-2.422-5.239-3.642-7.922-3.996-5.248-.693-11.376.6-13.507 7.282-.226.71.224 1.156.663 1.323l5.264 1.316c.504.039.934-.432 1.1-.942.769-2.298 2.791-3.184 4.894-2.906 1.134.15 2.365.757 2.894 1.92.551 1.161.352 2.589.173 3.866l-.06.439-.101.76c-.503-.007-1.03-.02-1.573-.034-2.955-.074-6.38-.159-9.063.677-3.662 1.122-6.51 4.012-7.133 8.732-.799 6.048 2.41 9.548 7.055 10.161 3.92.518 6.195-.175 9.648-3.029.121.251.229.482.33.699.572 1.227.945 2.028 2.319 3.597.38.286.924.349 1.334.049a245.063 245.063 0 0 1 4.738-3.305c.502-.331.505-.972.222-1.547Zm-10.504-4.046c-1.093 1.526-2.619 2.346-4.169 2.141-2.112-.279-3.128-2.144-2.795-4.662.654-4.957 4.989-5.3 8.975-4.773-.039.296-.076.595-.113.894-.276 2.246-.559 4.537-1.898 6.4Z" clip-rule="evenodd"/>
  <path fill="#fff" d="M162.256 159.278c-5.828 3.456-13.775 4.655-20.368 3.785-9.236-1.22-17.076-5.959-22.571-12.852-.431-.542.096-1.134.64-.686 6.237 5.113 14.302 8.759 22.977 9.905 5.852.773 12.456.328 18.728-1.57.946-.284 1.558.846.594 1.418Z"/>
  <path fill="#fff" d="M158.67 155.861c1.728.005 5.582.021 6.135 1.031.555 1.009-1.364 4.606-2.229 6.227l-.006.012c-.26.489.126.749.614.416 3.166-2.151 4.597-7.349 4.118-8.192-.476-.833-5.342-2.142-8.663-.277-.511.289-.495.778.031.783Z"/>
  <rect width="280" height="170" x="314" y="16.609" fill="#007042" rx="24" transform="rotate(-1.148 314 16.61)"/>
  <g opacity=".6">
    <mask id="b" width="283" height="175" x="314" y="11" maskUnits="userSpaceOnUse" style="mask-type:alpha">
      <rect width="280" height="170" x="314" y="16.609" fill="#F90" rx="24" transform="rotate(-1.148 314 16.61)"/>
    </mask>
    <g stroke="#045A37" stroke-miterlimit="10" stroke-width="1.5" mask="url(#b)">
      <path d="M415.439-213.088c-61.798 9.934-99.395 97.943-97.29 163.455 2.432 75.495 57.008 102.873 41.733 160.669-13.921 52.742-66.517 56.886-74.043 95.606-6.915 35.584 26.045 91.012 185.486 180.25"/>
      <path d="M478.219 382.347c-157.14-88.16-191.33-143.596-185.837-179.654 4.108-26.726 29.472-37.502 49.042-58.74a88.347 88.347 0 0 0 21.209-37.667c12.618-46.245-17.897-73.047-31.735-121.916a165.269 165.269 0 0 1-6.223-38.23c-3.104-65.76 29.272-152.691 88.787-163.927"/>
      <path d="M485.093 377.792c-154.829-87.084-190.239-142.495-186.155-178.953 3.004-26.8 27.137-38.161 45.69-59.421a95.603 95.603 0 0 0 20.758-37.776c12.855-45.586-14.686-72.437-27.929-121.49a187.081 187.081 0 0 1-6.242-38.144c-3.901-66.021 23.04-151.86 80.272-164.397"/>
      <path d="M491.945 373.248c-152.486-85.986-189.104-141.405-186.463-178.305 1.922-26.895 24.803-38.798 42.349-60.114a104.131 104.131 0 0 0 20.307-37.842c13.093-44.97-11.484-71.773-24.122-121.063a212.912 212.912 0 0 1-6.294-38.09c-4.816-66.27 16.809-151.018 71.757-164.857"/>
      <path d="M498.851 368.703C348.644 283.794 310.839 228.41 312.037 191.036c.851-26.959 22.479-39.458 38.986-60.816a114.64 114.64 0 0 0 19.866-37.962c13.33-44.354-8.272-71.142-20.316-120.69a250.197 250.197 0 0 1-6.303-37.95c-5.73-66.53 10.589-150.188 63.253-165.34"/>
      <path d="M505.736 364.202c-147.907-83.865-187.937-139.237-187.155-177.073.529-27.006 20.09-40.115 35.646-61.498a128.121 128.121 0 0 0 19.414-38.07c13.567-43.739-5.06-70.49-16.499-120.22a298.332 298.332 0 0 1-6.343-37.854c-6.687-66.789 4.358-149.357 54.749-165.812"/>
      <path d="M512.62 359.603c-145.596-82.734-185.711-138.061-187.548-176.369-1.163-27.058 17.819-40.808 32.368-62.202a145.321 145.321 0 0 0 18.963-38.168c13.804-43.124-1.86-69.87-12.692-119.795a373.23 373.23 0 0 1-6.362-37.757c-7.602-67.048-1.906-148.525 46.234-166.282"/>
      <path d="M519.504 355.059C376.21 273.434 334.886 218.12 331.68 179.327c-2.276-27.101 15.334-41.508 28.952-62.894a167.859 167.859 0 0 0 18.491-38.265c14.051-42.498 1.373-69.24-8.886-119.369-2.373-11.664-4.677-24.12-6.392-37.66-8.549-67.318-8.084-147.695 37.751-166.754"/>
      <path d="M526.388 350.515c-140.983-80.57-183.408-135.819-188.185-175.084-3.294-27.155 12.944-42.229 25.611-63.618a201.03 201.03 0 0 0 18.049-38.374c14.289-41.882 4.564-68.598-5.068-118.942-2.246-11.72-4.528-24.146-6.423-37.574-9.483-67.493-14.304-146.823 29.238-167.183"/>
      <path d="M533.262 345.959c-138.673-79.482-182.209-134.688-188.483-174.436-4.3-27.198 10.522-42.993 22.249-64.277a250.987 250.987 0 0 0 17.609-38.462c14.526-41.277 7.775-67.978-1.305-118.526-2.118-11.722-4.399-24.159-6.464-37.476-10.474-67.826-20.557-146.024 20.712-167.686"/>
      <path d="M540.146 341.415C403.774 263.02 359.147 207.847 351.324 167.649c-5.296-27.243 8.089-43.715 18.918-64.981a337.29 337.29 0 0 0 17.147-38.56c14.763-40.65 10.976-67.335 2.555-118.1-1.969-11.78-4.261-24.183-6.483-37.38-11.464-68.084-26.788-145.182 12.197-168.167"/>
      <path d="M547.03 336.87c-134.06-77.318-179.789-132.468-189.162-173.149-6.282-27.298 5.646-44.458 15.577-65.663 5.704-12.19 11.456-24.67 16.696-38.668 14.988-40.035 14.187-66.705 6.361-117.674-1.831-11.814-4.133-24.196-6.514-37.304-12.453-68.342-33.019-144.351 3.693-168.628"/>
      <path d="M553.915 332.325C422.197 256.084 375.358 201.03 364.423 159.824c-7.278-27.353 3.169-45.231 12.225-66.366 5.345-12.471 10.925-24.98 16.244-38.766C408.15 15.272 410.28-11.37 403.06-62.555c-1.681-11.849-3.994-24.22-6.543-37.186-13.464-68.589-39.251-143.52-4.811-169.099"/>
      <path d="M560.799 327.802C431.35 252.628 383.483 197.541 370.977 155.928c-8.241-27.408.683-46.005 8.884-67.069 4.966-12.763 10.385-25.29 15.795-38.82 15.462-38.815 20.599-65.422 13.984-116.865-1.554-11.894-3.877-24.233-6.574-37.089-14.496-68.847-45.503-142.689-13.336-169.57"/>
      <path d="M567.672 323.226c-127.137-74.067-176.041-129.1-190.15-171.205-9.217-27.474-1.826-46.778 5.532-67.75 4.574-13.055 9.853-25.622 15.342-38.973 15.7-38.177 23.8-64.79 17.791-116.394a367.37 367.37 0 0 0-6.636-37.003c-15.474-69.084-51.671-141.881-21.808-170.032"/>
      <path d="M574.557 318.681c-124.827-72.989-174.811-128.055-190.49-170.524-10.181-27.54-4.345-47.562 2.19-68.496 4.172-13.346 9.312-25.931 14.89-39.06 15.937-37.572 27.012-64.16 21.599-115.946a291.532 291.532 0 0 0-6.634-36.907c-16.592-69.35-57.934-141.039-30.388-170.533"/>
      <path d="M581.441 314.137C458.915 242.235 407.935 187.125 390.61 144.219c-11.123-27.586-6.885-48.335-1.161-69.146 3.76-13.638 8.793-26.242 14.45-39.158 16.174-36.946 30.213-63.529 25.405-115.553a242.075 242.075 0 0 0-6.665-36.809c-17.602-69.565-64.154-140.187-38.848-170.984"/>
      <path d="M588.325 309.581c-120.172-70.815-172.232-125.871-191.16-169.259-12.088-27.684-9.457-49.118-4.513-69.838 3.326-13.971 8.252-26.562 13.999-39.266 16.39-36.33 33.424-62.887 29.222-115.127a208.088 208.088 0 0 0-6.695-36.712c-18.666-69.801-70.396-139.356-47.363-171.456"/>
      <path d="M595.21 305.037c-117.914-69.684-170.938-124.806-191.458-168.622-13.031-27.762-12.03-49.88-7.833-70.531 2.925-14.23 7.721-26.894 13.548-39.365 16.648-35.715 36.636-62.256 33.007-114.699a182.233 182.233 0 0 0-6.725-36.616c-19.741-70.036-76.596-138.579-55.868-171.927"/>
      <path d="M602.094 300.492c-115.603-68.65-169.643-123.752-191.83-167.972-13.985-27.861-14.634-50.65-11.206-71.234 2.427-14.52 7.19-27.194 13.118-39.463C429.061-13.266 452.013-39.79 449.01-92.45a161.318 161.318 0 0 0-6.755-36.519c-20.846-70.26-82.869-137.694-64.392-172.398"/>
      <path d="M608.967 295.937c-113.291-67.562-168.284-122.688-192.158-167.282-14.917-27.948-17.238-51.4-14.547-71.915 1.94-14.81 6.649-27.514 12.634-39.56 17.133-34.484 43.059-60.994 40.652-113.858a145.722 145.722 0 0 0-6.785-36.432c-22.038-70.429-89.068-136.854-72.887-172.881"/>
      <path d="M615.852 291.404C435.721 183.52 400.328 105.423 405.464 52.099c5.606-58.212 59.072-81.456 56.652-153.09-2.85-84.033-104.481-166.033-88.216-209.666"/>
    </g>
  </g>
  <g opacity=".2">
    <path stroke="#fff" stroke-linecap="round" stroke-linejoin="round" stroke-width="2" d="m470.55 51.855-31.619.634a1.438 1.438 0 0 0-1.408 1.466l.115 5.748a1.437 1.437 0 0 0 1.466 1.409l31.619-.634a1.437 1.437 0 0 0 1.408-1.466l-.115-5.748a1.437 1.437 0 0 0-1.466-1.409Z"/>
    <path stroke="#fff" stroke-linecap="round" stroke-linejoin="round" stroke-width="2" d="m469.285 60.507.26 12.935a1.441 1.441 0 0 1-1.409 1.466l-25.87.518a1.437 1.437 0 0 1-1.466-1.408l-.259-12.935M454.741 52.172l.46 22.995M462.838 49.979c-2.007 2.07-8.097 2.193-8.097 2.193s-.122-6.09 1.867-8.18a4.318 4.318 0 0 1 6.108-.121 4.32 4.32 0 0 1 .122 6.108v0ZM446.561 50.305c2.089 1.989 8.179 1.867 8.179 1.867s-.122-6.09-2.193-8.098a4.32 4.32 0 1 0-5.986 6.23v0Z"/>
    <path fill="#fff" d="m469.285 60.507.26 12.935a1.441 1.441 0 0 1-1.409 1.466l-25.87.518a1.437 1.437 0 0 1-1.466-1.408l-.259-12.935 28.744-.576Z" opacity=".2"/>
  </g>
  <rect width="50" height="50" x="430.899" y="110.286" fill="#fff" rx="25" transform="rotate(-1.15 430.899 110.286)"/>
  <path fill="#007042" d="M455.927 118.574c.906.495 1.868 1.137 2.605 1.822l-.278.29c-1.429-.123-2.927.096-4.279.144-.154-.149-.462-.37-.183-.566l2.135-1.69Zm25.568 17.117c.032.64.103 1.188-.135 1.849-2.59.789-4.356-1.921-6.876-1.456l.315 1.417c2.34.029 3.845 2.231 6.259 2.087-.329.689.203 2.475-1.332 1.788-1.586-.346-2.755-1.706-4.485-1.672-.201.386-.058.911-.085 1.363 1.83.248 3.173 1.756 5.003 2.003-.159.627-.315 1.328-.821 1.719-1.492-.329-2.677-1.632-4.257-1.562l-.255 1.311c1.503.009 2.499 1.311 3.857 1.68.048.551-.437 1.053-.713 1.55-1.205-.334-2.139-1.339-3.506-1.236-.029-.513.265-1.102.139-1.648-1.528.486-2.588-.914-3.744-1.744-.089-2.789-3.078-4.56-3.286-7.17a3.86 3.86 0 0 1 .255-1.68c.925-2.252.562-5.143-.543-7.202-.334-.541-.916-.962-1.456-1.273.814 1.631 1.805 3.557 1.37 5.59-.023 1.564-.92 3.084-.9 4.591a3.13 3.13 0 0 0 .454 1.608c1.281 2.191 3.549 4.244 2.768 7.04-.213.859-.885 1.532-1.038 2.405 1.47 1.163 2.865 2.479 4.787 2.516.675-.449.256-2.368 1.681-1.508l2.075.982c-.138.55-.589 1.049-.999 1.435-.787-.362-1.556-.799-2.527-.743-.281.308-.521.653-.49 1.086.686.099 1.319.373 1.899.76-.254.574-.764.94-1.231 1.385l-1.605-.535c-.258.384-.803.794-.601 1.205.363.146.766.345 1.036.606-.688.77-1.57 1.275-2.418 1.806-.787-2.389-3.256-4.025-3.103-6.808l-.115-.11c-.56.651-.348 1.671-.294 2.501.72 1.727 2.381 3.039 2.667 4.943-.276.497-.92.608-1.41.826-.012-3.443-5.312-5.948-2.016-9.497 1.088-1.727 2.935-3.392 2.222-5.725-.73-2.253-3.177-3.608-3.207-6.149v-.198c.498-2.66 2.115-5.513.689-8.303-.404-1.126-1.283-2.397-2.452-2.848 1.769 1.935 2.519 5.134 1.583 7.803-.478 1.064-1.139 2.334-1.183 3.574h-.004c-.024.648.122 1.289.554 1.89 1.355 2.093 3.682 4.376 2.426 7.164-1.439 2.242-3.979 4.544-2.477 7.429 1.081 1.72 2.733 3.424 2.34 5.572l-1.7.601c1.061-4.013-4.577-6.245-2.317-10.284 1.402-2.167 3.946-4.224 2.427-7.031-.91-1.741-2.738-2.745-2.725-4.942l.055-.371c.526-3.127 2.847-6.123 1.116-9.419-.457-.974-1.351-1.959-2.333-2.508l-.057.06c1.978 1.834 2.63 4.903 1.633 7.401-.459 1.463-1.501 2.932-1.687 4.494a3.64 3.64 0 0 0 .456 2.288c1.275 1.922 3.483 3.944 2.181 6.488-1.382 2.108-3.719 4.178-2.715 6.863 1.094 2.344 3.323 4.553 2.203 7.51l-1.758.432c1.349-2.886-.817-5.68-2.102-8.134-1.574-3.527 3.123-5.325 3.134-8.578-.06-2.098-2.327-3.245-2.839-5.165-.987-.795-1.971.364-3.135.176-.853.188-2.196-1.129-2.678.338-.566 2.149-3.309 3.775-2.039 6.285 1.206 2.228 4.031 3.819 3.156 6.752-.78 2.739-3.487 5.386-1.713 8.491-.707-.212-2.011.248-2.014-.87-1.16-3.78 3.415-6.088 1.912-9.859-.711-2.314-3.762-3.54-3.152-6.352.446-2.315 3.013-3.978 2.598-6.495a3.744 3.744 0 0 0-.17-.65c-1.025-2.704-3.059-5.389-1.943-8.592.306-.915.937-1.703 1.489-2.526-1.862 1.04-2.769 3.178-2.687 5.334-.035 2.346 1.746 4.319 2.037 6.46.115.864-.01 1.753-.598 2.706-1.202 1.692-2.782 3.482-1.997 5.662.748 2.2 3.551 3.486 3.432 6.063.042 3.045-3.476 5.011-2.4 8.396l-1.781-.536c-.763-3.011 2.438-4.624 2.418-7.424.393-3.228-3.758-4.34-3.573-7.483-.066-2.384 2.014-3.936 2.905-5.96a3.83 3.83 0 0 0 .164-1.395c-.159-2.215-2.202-3.909-1.919-6.408.075-1.837.671-3.458 1.841-4.862-1.64.694-2.285 2.601-2.71 4.199-.741 2.564 1.197 4.819 1.433 7.098.104 1.007-.124 2.014-1.057 3.058-1.337 1.633-2.686 3.687-1.653 5.826 1.095 2.36 4.422 4.148 3.055 7.147-.741 1.889-2.577 3.344-2.456 5.555-.498-.198-1.015-.396-1.442-.764-.057-2.818 3.937-4.659 1.958-7.591-.159.59-.179 1.387-.299 2.051-.632 1.736-2.029 3.143-2.527 4.934-.899-.324-1.846-1.025-2.603-1.767l1.015-.646c-.122-.377-.432-.692-.704-1.008-.669-.08-1.099.364-1.646.546-.483-.408-.95-.777-1.339-1.28.322-.973 3.004-.228 1.621-1.79-.923-.549-1.822.28-2.612.674l-1.11-1.338c.92-.586 1.834-1.401 2.997-1.196.296.506.331 1.258.886 1.514 1.958-.077 3.317-1.579 4.795-2.763-1.078-1.528-1.972-3.65-1.08-5.542.707-1.893 2.616-3.513 2.662-5.59a3.683 3.683 0 0 0-.292-1.499c-1.079-2.61-1.512-6.156.4-8.523-1.06.306-1.661 1.639-2.003 2.649-1.126 2.591.411 4.94.512 7.4a5.27 5.27 0 0 1-.11 1.336c-.968 2.044-2.565 3.853-2.784 6.187-1.145.76-2.072 2.066-3.734 1.665-.049.436.097 1.096.259 1.585-1.312-.028-2.187.951-3.281 1.427-.592-.176-.76-.929-.999-1.454 1.284-.46 2.19-1.767 3.674-1.776.162-.479-.115-.909-.2-1.361-1.861-.778-4.689 4.123-5.019-.07 1.841-.151 2.985-1.877 4.808-2.084l.027-1.361c-2.076-.167-3.367 1.98-5.443 1.812l-.493-1.805c2.399.101 3.784-2.065 6.064-2.225.295-.403.32-.99.367-1.54-2.497-.272-4.151 2.508-6.812 1.727 0 0-.114-1.141-.176-1.784l.003-.001a21.171 21.171 0 0 0-.043-.426c2.376.862 4.413-.864 6.412-1.774.51-.163 1.316.086 1.534-.486-.029-.435.759-.959.089-1.25-2.957-.339-4.844 3.239-7.9 1.691l-.236-.451c.457-8.561 5.138-16.924 13.098-21.152 3.22-1.918 7.247-2.943 11.327-3.058 4.924-.14 9.926 1.046 13.68 3.578 3.638 2.122 7.15 5.668 9.089 9.301 1.85 3.179 2.743 6.771 3.066 10.608-3.072 2.407-5.256-2.105-8.411-1.022.181.489.286.997.657 1.406 2.814-.076 4.812 2.817 7.735 1.603l.011.427Zm-36.038-9.81c-2.003-1.247-4.486.015-6.315.753-.206-1.719-.94-3.274-2.429-4.379-.144-.068-.343-.212-.52-.219-.106-.005-.206.04-.282.176.746 4.053-1.854 6.944-3.675 10.066.637.497 1.643.401 2.4.236 1.98-.834 3.854-2.255 6.24-1.829.679-1.205 1.837-2.383 2.786-3.349.581-.521 1.387-.86 1.795-1.455Zm6.099 2.432c-.033.246.033.681.409.505.574-.825 1.632-.203 2.279-.158l-.005-.229c-.365-.547-1.1-.81-1.84-.768-.171.01-.344.038-.51.08-.247.06-.415.289-.333.57Zm9.248-2.623c-.554-1.163-1.781-1.613-2.891-1.874a14.977 14.977 0 0 0-1.662-.084c-.105.002-.209.002-.313.007-1.558.062-3.039.49-3.923 1.785-.123.363-.687.88-.148 1.193 1.197-.101 2.561-.277 3.38.729.018.909.632 2.107-.348 2.562-.834-.738-1.782.356-2.685-.231-.424-.238-.683.055-.847.418-.201 2.35 1.085 4.913 3.317 6.173.9.303 2.107.584 3.031.11 2.222-1.084 3.104-3.485 3.477-5.688-.064-.416-.06-1.23-.65-1.238-.656.432-1.631.204-2.34.047-.414.142-.421.749-.893.873l-.293-.223c-.269-1.034-.451-2.507.505-3.245 1.076-.457 2.346-.673 3.475-.354.202-.363-.127-.64-.192-.96Zm-1.107 1.888-.223.013c-.393.272-1.558.105-1.121.986.712-.583 1.728-.205 2.456.064.264-.138.201-.401.214-.63-.24-.425-.796-.454-1.326-.433Zm8.118-8.164c-1.409-.046-2.572.772-3.857 1.158-.135-1.092.678-2.265.846-3.368-2.088.176-3.719 1.461-5.428 2.496-.42-.954-.841-1.914-1.258-2.871l2.239-2.203.052-.286-3.085-.108c-.549-.915-.781-2.026-1.425-2.864-.495.975-.819 2.003-1.313 2.977l-3.074.233.004.225 2.379 2.052c-.264 1.085-.506 2.262-1.193 3.091-1.385-.788-2.752-1.649-4.264-2.185-.364-.109-.882-.287-1.201-.034.496 1.031 1.183 2.137 1.094 3.275-.63-.102-1.132-.492-1.725-.649-.709-.177-1.553-.535-2.233-.293 1.173 1.565 2.137 3.208 2.498 5.113 3.749-1.894 8.143-2.982 12.741-2.297 2.155.297 4.147 1.127 6.082 1.806.035-2.005 1.277-3.641 2.121-5.268Zm6.719 10.767c1.948.471 3.934 2.533 5.959 1.129-1.847-2.915-4.561-5.586-3.899-9.459.072-.265-.104-.529-.351-.561-1.15.495-2.025 1.649-2.461 2.775-.176.665-.273 1.369-.527 1.997-1.403-.691-2.899-1.358-4.588-1.156-.608.088-1.482.146-1.582.771 1.94.983 3.554 2.655 4.767 4.445.816-.149 1.824-.056 2.682.059Zm-20.253 3.074.062.341c.753.477.998 1.307 2.025 1.211.913.035 1.581-.829 2.022-1.518-1.238-.145-2.735.147-4.109-.034Zm.997-1.552c.04.151-.087.38.122.453.606-.144 1.717.287 2.043-.438-.243-.26-.633-.372-1.039-.364-.406.008-.826.135-1.126.349Z"/>
  <rect width="280" height="170" x="132" y="195.365" fill="#333" rx="24" transform="rotate(-9.117 132 195.365)"/>
  <g opacity=".6">
    <mask id="c" width="296" height="204" x="136" y="155" maskUnits="userSpaceOnUse" style="mask-type:alpha">
      <rect width="280" height="170" x="132" y="195.365" fill="#F90" rx="24" transform="rotate(-9.117 132 195.365)"/>
    </mask>
    <g stroke="#1B1B1B" stroke-miterlimit="10" stroke-width="1.5" mask="url(#c)">
      <path d="M200.616-46.178C140.791-27.772 115.759 64.6 126.925 129.187c12.876 74.429 70.72 93.977 63.605 153.332-6.475 54.162-57.989 65.559-60.074 104.948-1.915 36.199 38.411 86.522 208.683 152.795"/>
      <path d="M345.337 534.805C177.492 469.28 135.947 419.12 136.388 382.648c.363-27.037 23.988-41.225 40.425-64.971a88.333 88.333 0 0 0 15.782-40.244c6.085-47.547-27.85-69.86-48.33-116.339a165.233 165.233 0 0 1-11.462-36.999c-12.191-64.694 7.821-155.274 65.203-174.652"/>
      <path d="M351.513 529.341c-165.407-64.779-208.157-114.746-209.166-151.418-.741-26.957 21.584-41.554 37.011-65.182a95.603 95.603 0 0 0 15.32-40.289c6.412-46.928-24.586-69.701-44.502-116.444a187.068 187.068 0 0 1-11.469-36.911C125.69 54.254 140.471-34.49 195.412-54.841"/>
      <path d="M357.669 523.891c-162.934-64.017-206.882-113.824-209.381-150.734-1.826-26.902 19.184-41.862 33.606-65.404a104.158 104.158 0 0 0 14.865-40.292c6.731-46.351-21.324-69.488-40.673-116.549a212.914 212.914 0 0 1-11.514-36.85c-13.956-64.963-4.29-151.89 48.21-173.214"/>
      <path d="M363.878 518.432C203.35 455.167 158.232 405.558 154.237 368.38c-2.895-26.818 16.792-42.193 30.179-65.634a114.657 114.657 0 0 0 14.412-40.349c7.051-45.775-18.056-69.309-36.853-116.708a250.136 250.136 0 0 1-11.502-36.711c-14.898-65.093-10.335-150.205 39.72-172.512"/>
      <path d="M370.073 513.02c-158.106-62.55-205.426-111.838-209.896-149.417-3.221-26.819 14.335-42.513 26.775-65.846a128.09 128.09 0 0 0 13.949-40.394c7.372-45.197-14.784-69.108-33.006-116.772a298.257 298.257 0 0 1-11.529-36.609c-15.882-65.217-16.391-148.519 31.233-171.8"/>
      <path d="M376.252 507.512c-155.659-61.751-203.057-110.983-210.187-148.666-4.903-26.636 11.99-42.885 23.432-66.089a145.325 145.325 0 0 0 13.489-40.429c7.692-44.62-11.528-68.937-29.177-116.878a373.111 373.111 0 0 1-11.536-36.51c-16.824-65.348-22.478-146.827 22.736-171.086"/>
      <path d="M382.44 502.057C229.214 441.085 180.621 392.034 172.068 354.06c-6.012-26.523 9.431-43.232 19.953-66.3a167.88 167.88 0 0 0 13.007-40.46c8.024-44.035-8.239-68.761-25.348-116.983-3.968-11.223-7.976-23.24-11.552-36.41-17.799-65.484-28.481-145.15 14.269-170.378"/>
      <path d="M388.628 496.602c-150.792-60.247-200.466-109.081-210.641-147.304-7.026-26.436 6.965-43.617 16.544-66.555a201.032 201.032 0 0 0 12.556-40.506c8.344-43.458-4.991-68.567-21.509-117.09-3.85-11.296-7.832-23.285-11.57-36.32-18.749-65.527-34.52-143.423 5.778-169.623"/>
      <path d="M394.803 491.137c-148.352-59.49-199.121-108.127-210.845-146.621-8.029-26.34 4.46-44.037 13.123-66.742a251.003 251.003 0 0 0 12.107-40.531c8.663-42.892-1.724-68.399-17.724-117.2-3.722-11.316-7.706-23.316-11.597-36.219-19.776-65.719-40.602-141.763-2.735-168.938"/>
      <path d="M400.991 485.682c-145.923-58.732-197.767-107.185-211.088-145.91-9.022-26.246 1.951-44.415 9.727-66.977a337.346 337.346 0 0 0 11.636-40.564c8.984-42.305 1.534-68.207-13.843-117.314-3.583-11.393-7.572-23.359-11.603-36.12C165.029 12.96 139.164-61.27 174.586-89.438"/>
      <path d="M407.179 480.227c-143.485-57.986-196.417-106.264-211.34-145.253-10.005-26.163-.572-44.811 6.323-67.188 3.959-12.863 7.926-26.019 11.174-40.609 9.294-41.727 4.803-68.028-10.013-117.42-3.451-11.446-7.448-23.39-11.623-36.04-21.807-65.957-52.712-138.38-19.72-167.513"/>
      <path d="M413.367 474.772C272.352 417.527 218.333 369.498 201.79 330.207c-10.999-26.08-3.131-45.235 2.907-67.42 3.565-13.092 7.357-26.253 10.713-40.644 9.646-41.155 8.062-67.836-6.185-117.525-3.308-11.501-7.313-23.433-11.635-35.92-22.843-66.06-58.769-136.693-28.208-166.8"/>
      <path d="M419.558 469.338C280.937 412.835 225.896 364.917 207.742 325.44c-11.962-26.002-5.702-45.656-.5-67.653 3.148-13.329 6.778-26.485 10.26-40.636 9.932-40.584 11.331-67.646-2.352-117.674-3.189-11.565-7.2-23.463-11.653-35.82-23.9-66.173-64.845-135.003-36.716-166.084"/>
      <path d="M425.73 463.853c-136.178-55.726-192.238-103.448-212.049-143.19-12.936-25.932-8.293-46.074-3.914-67.863 2.72-13.563 6.207-26.74 9.791-40.723 10.256-39.986 14.588-67.465 1.484-117.738a367.477 367.477 0 0 0-11.702-35.725c-24.902-66.271-70.842-133.348-45.17-165.366"/>
      <path d="M431.918 458.398c-133.74-54.98-190.876-102.584-212.291-142.469-13.9-25.863-10.896-46.501-7.327-68.139 2.282-13.796 5.628-26.971 9.332-40.747 10.574-39.419 17.856-67.284 5.316-117.82a291.398 291.398 0 0 0-11.687-35.631c-26.046-66.38-76.927-131.646-53.736-164.674"/>
      <path d="M438.106 452.943c-131.311-54.221-189.439-101.731-212.545-141.822-14.839-25.777-13.519-46.914-10.735-68.317 1.833-14.027 5.069-27.207 8.882-40.783 10.895-38.832 21.113-67.104 9.139-117.958a241.95 241.95 0 0 0-11.703-35.53c-27.076-66.454-82.969-129.94-62.178-163.948"/>
      <path d="M444.292 447.477c-128.829-53.472-188.019-100.779-212.779-141.123-15.809-25.742-16.176-47.333-14.151-68.539 1.356-14.297 4.489-27.449 8.419-40.828 11.195-38.251 24.384-66.913 12.98-118.065a208.113 208.113 0 0 0-11.72-35.43c-28.162-66.54-89.036-128.251-70.676-163.234"/>
      <path d="M450.48 442.022c-126.435-52.664-186.589-99.903-212.986-140.451-16.753-25.687-18.828-47.73-17.534-68.764.923-14.499 3.917-27.705 7.959-40.863 11.536-37.678 27.651-66.733 16.787-118.167a182.242 182.242 0 0 0-11.736-35.33c-29.26-66.623-95.069-126.623-79.163-162.522"/>
      <path d="M456.668 436.567c-124.004-51.961-185.161-99.039-213.264-139.757-17.713-25.652-21.515-48.132-20.973-68.992.39-14.716 3.35-27.928 7.52-40.9 11.857-37.091 30.91-66.542 20.636-118.276a161.297 161.297 0 0 0-11.752-35.23C208.449-33.28 137.677-91.464 151.164-128.394"/>
      <path d="M462.843 431.103c-121.564-51.204-183.668-98.174-213.493-139.027-18.648-25.61-24.198-48.514-24.376-69.204-.133-14.936 2.77-28.17 7.027-40.93 12.187-36.526 34.187-66.374 24.475-118.394a145.73 145.73 0 0 0-11.771-35.14c-31.589-66.693-107.18-123.184-96.149-161.106"/>
      <path d="M469.033 425.659C275.685 343.79 229.807 271.353 227.501 217.831c-2.518-58.426 47.209-88.857 34.882-159.465C247.91-24.46 135.893-91.579 145.951-137.045"/>
    </g>
  </g>
  <g opacity=".2">
    <path stroke="#fff" stroke-linecap="round" stroke-linejoin="round" stroke-width="2" d="m291.925 208.567-31.226 5.011a1.438 1.438 0 0 0-1.192 1.647l.911 5.677a1.438 1.438 0 0 0 1.648 1.192l31.225-5.011a1.438 1.438 0 0 0 1.192-1.647l-.911-5.677a1.438 1.438 0 0 0-1.647-1.192Z"/>
    <path stroke="#fff" stroke-linecap="round" stroke-linejoin="round" stroke-width="2" d="m291.872 217.311 2.05 12.774a1.441 1.441 0 0 1-1.192 1.647l-25.548 4.1a1.437 1.437 0 0 1-1.647-1.192l-2.05-12.774M276.312 211.073l3.644 22.709M284.027 207.778c-1.701 2.329-7.715 3.294-7.715 3.294s-.965-6.014.715-8.358a4.32 4.32 0 1 1 7 5.064v0ZM267.953 210.357c2.344 1.681 8.358.716 8.358.716s-.965-6.015-3.294-7.716a4.32 4.32 0 0 0-5.064 7v0Z"/>
    <path fill="#fff" d="m291.872 217.311 2.05 12.774a1.441 1.441 0 0 1-1.192 1.647l-25.548 4.1a1.437 1.437 0 0 1-1.647-1.192l-2.05-12.774 28.387-4.555Z" opacity=".2"/>
  </g>
  <path fill="#fff" d="M306.047 288.607c-.179.142-4.478 3.213-3.652 8.361 1.163 5.835 7.169 6.982 7.267 6.967-.08.125-.407 2.942-2.204 6.127-1.395 2.72-2.983 5.491-5.993 5.974-2.862.46-4.15-.997-7.453-.466-3.548.569-4.291 2.352-7.007 2.788-3.01.483-5.553-1.76-7.823-3.868-2.953-2.761-5.827-7.378-6.663-12.119-.454-2.511-.312-5.074.719-7.397 1.461-3.246 4.591-5.793 8.349-6.463 2.872-.551 5.74.898 7.502.616 1.688-.271 4.56-2.552 8.131-3.126 1.542-.246 5.719-.49 8.827 2.606Zm-17.568-1.718c-.883-2.218.166-4.746 1.252-6.425 1.404-2.046 3.877-3.678 6.176-4.047.516 2.276-.052 4.681-1.451 6.591-1.207 2.014-3.562 3.763-5.977 3.881Z"/>
</svg>
