<svg xmlns="http://www.w3.org/2000/svg" width="406" height="278" fill="none">
  <rect width="378.823" height="230" x="30.271" fill="url(#a)" rx="24" transform="rotate(7.521 30.271 0)"/>
  <g opacity=".6">
    <mask id="b" width="400" height="271" x="3" y="3" maskUnits="userSpaceOnUse" style="mask-type:alpha">
      <rect width="378.823" height="230" x="30.271" fill="#F90" rx="24" transform="rotate(7.521 30.271 0)"/>
    </mask>
    <g stroke="#1E6EDF" stroke-miterlimit="10" stroke-width="1.5" mask="url(#b)">
      <path d="M212.787-286.53c-84.681.684-152.913 110.727-163.458 198.778C37.187 13.718 104.598 61.465 72.382 135.65c-29.375 67.702-100.567 62.52-118.53 112.772-16.505 46.183 16.275 127.039 211.326 278.908"/>
      <path d="M175.327 522.658C-16.867 372.699-51.291 291.582-36.591 244.475c10.944-34.907 47.066-44.147 77.572-68.562a119.525 119.525 0 0 0 36.048-46.055C103.336 70.58 67.99 28.511 59.446-39.674a223.622 223.622 0 0 1-.526-52.4c9.259-88.586 70.288-198.253 152.18-201.143"/>
      <path d="M185.449 517.967C-3.874 369.919-39.933 288.587-27.037 240.658c9.484-35.231 44.078-45.505 73.228-70.157a129.34 129.34 0 0 0 35.467-46.292c26.49-58.35-4.87-99.878-12.579-168.186a253.122 253.122 0 0 1-.57-52.29c8.246-89.098 61.785-198.411 140.888-203.509"/>
      <path d="M195.541 513.288C9.129 367.185-28.547 285.596-17.489 236.782c8.055-35.581 41.085-46.835 68.9-71.765a140.904 140.904 0 0 0 34.878-46.472c26.682-57.477-.723-98.338-7.575-166.839a288.147 288.147 0 0 1-.65-52.228c7.073-89.618 53.278-198.556 129.593-205.861"/>
      <path d="M205.704 508.617C22.12 364.421-17.15 282.635-7.926 232.893c6.636-35.884 38.112-48.19 64.546-73.39a155.104 155.104 0 0 0 34.313-46.722c26.873-56.605 3.443-96.839-2.562-165.564a338.454 338.454 0 0 1-.69-52.043c5.904-90.152 44.79-198.715 118.318-208.241"/>
      <path d="M215.831 504C35.11 361.67-7.139 279.448 1.624 229.002c6.215-36.013 35.051-49.557 60.217-74.983a173.36 173.36 0 0 0 33.73-46.959c27.065-55.734 7.607-95.312 2.45-164.158a403.433 403.433 0 0 1-.764-51.922c4.675-90.693 36.286-198.874 107.039-210.605"/>
      <path d="M225.975 499.254C48.116 358.907 5.745 276.727 11.1 225.117c3.963-36.428 32.155-50.947 55.977-76.594a196.67 196.67 0 0 0 33.147-47.182c27.256-54.862 11.76-93.83 7.454-162.812a504.8 504.8 0 0 1-.81-51.797c3.505-91.227 27.739-199.039 95.747-212.971"/>
      <path d="M236.109 494.58C61.102 356.185 17.112 273.777 20.735 221.237c2.482-36.71 28.973-52.388 51.55-78.214a227.136 227.136 0 0 0 32.534-47.409c27.46-53.974 15.956-92.327 12.458-161.465-.796-16.085-1.337-33.216-.87-51.673 2.294-91.781 19.307-199.19 84.498-215.333"/>
      <path d="M246.243 489.905C74.111 353.394 28.636 270.847 30.253 217.357c1.133-36.99 25.925-53.841 47.228-79.865a271.968 271.968 0 0 0 31.967-47.644C137.099 36.746 129.54-.969 126.925-70.268c-.614-16.134-1.132-33.218-.929-51.565 1.081-92.204 10.811-199.289 73.199-217.641"/>
      <path d="M256.365 485.214C87.103 350.629 40.132 267.914 39.845 213.472c-.204-37.254 22.841-55.358 42.866-81.433a339.59 339.59 0 0 0 31.396-47.851c27.845-52.245 24.261-89.333 22.426-158.792-.442-16.111-.958-33.21-1.003-51.443-.177-92.851 2.284-199.496 61.898-220.053"/>
      <path d="M266.5 480.54C100.093 347.878 51.656 264.985 49.39 209.625c-1.528-37.517 19.734-56.819 38.554-83.054a456.294 456.294 0 0 0 30.798-48.075c28.035-51.36 28.411-87.822 27.501-157.436-.231-16.156-.767-33.214-1.048-51.317-1.448-93.399-6.222-199.642 50.607-222.434"/>
      <path d="M276.634 475.866c-163.536-130.75-213.45-213.839-217.692-270.16-2.834-37.792 16.618-58.31 34.225-84.647 10.115-15.14 20.353-30.659 30.216-48.313 28.212-50.49 32.578-86.323 32.506-156.09-.039-16.174-.593-33.204-1.105-51.222-2.718-93.946-14.725-199.801 39.328-224.784"/>
      <path d="M286.769 471.191C126.147 342.358 74.728 259.172 68.505 201.831c-4.156-38.068 13.463-59.85 29.885-86.271 9.693-15.59 19.707-31.181 29.632-48.536 28.446-49.612 36.729-84.812 37.51-154.742.167-16.191-.403-33.21-1.169-51.071-4.02-94.483-23.229-199.96 28.05-227.149"/>
      <path d="M296.9 466.546C139.094 339.602 86.307 256.163 78.066 197.957c-5.433-38.339 10.296-61.392 25.56-87.892 9.243-16.058 19.046-31.707 29.041-48.702 28.596-48.76 40.893-83.3 42.536-153.452.347-16.225-.244-33.202-1.229-50.947-5.348-95.037-31.761-200.124 16.743-229.517"/>
      <path d="M307.026 461.826c-154.94-124.989-209.125-208.569-219.41-267.76-6.724-38.627 7.098-62.938 21.216-89.488 8.78-16.528 18.404-32.258 28.467-48.996 28.784-47.86 45.045-81.803 47.532-152.048.425-16.959-.019-33.929-1.33-50.843-6.608-95.554-40.175-200.301 5.507-231.862"/>
      <path d="M317.16 457.152C165.091 334.074 109.467 250.231 97.157 190.232c-8-38.911 3.889-64.499 16.898-91.166 8.302-17 17.743-32.784 27.882-49.205 28.977-47.003 49.212-80.304 52.532-150.672.64-16.916.191-33.856-1.347-50.715-8.049-96.138-48.723-200.452-5.866-234.283"/>
      <path d="M327.295 452.478C178.081 331.323 121.134 247.219 106.713 186.299c-9.251-39.164.648-66.051 12.548-92.719 7.81-17.473 17.112-33.304 27.312-49.426 29.167-46.116 53.365-78.807 57.543-149.368a327.617 327.617 0 0 0-1.407-50.591c-9.356-96.633-57.217-200.581-17.091-236.612"/>
      <path d="M337.431 447.789C191.144 328.568 132.742 244.315 116.274 182.424c-10.521-39.492-2.632-67.623 8.207-94.328 7.297-18.008 16.452-33.844 26.73-49.663 29.33-45.249 57.529-77.294 62.561-148.02a281.442 281.442 0 0 0-1.467-50.468c-10.731-97.164-65.734-200.742-28.383-238.978"/>
      <path d="M347.566 443.114C204.069 325.867 144.391 241.329 125.881 178.541c-11.767-39.788-5.918-69.165 3.908-95.931 6.813-18.437 15.81-34.396 26.147-49.887 29.549-44.373 61.695-75.795 67.536-146.677 1.211-16.789.7-33.659-1.527-50.344-12.12-97.698-74.186-200.968-39.661-241.343"/>
      <path d="M357.7 438.44C217.083 323.047 156.042 238.329 135.386 174.66c-13.023-40.115-9.244-70.729-.461-97.56 6.206-18.925 15.162-34.904 25.592-50.105 29.739-43.487 65.846-74.284 72.569-145.327a218.298 218.298 0 0 0-1.587-50.221c-13.555-98.223-82.756-201.063-50.967-243.711"/>
      <path d="M367.822 433.749C230.074 320.282 167.764 235.338 144.927 170.826c-14.252-40.423-12.574-72.263-4.79-99.152 5.614-19.412 14.503-35.444 24.965-50.335 29.947-42.628 70.029-72.797 77.59-143.992a197.171 197.171 0 0 0-1.646-50.112c-15.112-98.691-91.218-201.203-62.229-246.088"/>
      <path d="M377.954 429.09C159.033 248.064 127.621 136.393 145.366 66.119c19.369-76.714 95.618-96.898 106.99-193.202 13.325-112.973-105.882-243.373-75.23-298.414"/>
    </g>
  </g>
  <g opacity=".3">
    <path fill="#fff" d="m194.106 63.404 37.054 4.891-2.237 16.941a1.44 1.44 0 0 1-1.613 1.237l-34.203-4.515a1.438 1.438 0 0 1-1.237-1.613l2.236-16.941Z" opacity=".2"/>
    <path stroke="#fff" stroke-linecap="round" stroke-linejoin="round" stroke-width="2" d="m230.696 60.82-34.203-4.514a1.437 1.437 0 0 0-1.613 1.237l-3.01 22.802c-.104.787.45 1.51 1.237 1.613l34.203 4.515a1.437 1.437 0 0 0 1.613-1.237l3.01-22.802a1.438 1.438 0 0 0-1.237-1.613ZM218.086 79.456l5.701.752M209.536 78.327l2.85.376M194.106 63.404l37.054 4.891"/>
  </g>
  <path fill="#fff" d="M219.422 184.167c-10.335-1.364-20.287 2.841-21.61 12.864-1.517 11.494 14.758 14.451 13.996 20.225-.321 2.431-3.36 4.245-8.059 3.625-6.669-.881-11.253-4.58-11.253-4.58l-3.468 9.833s5.404 3.326 13.027 4.333c11.299 1.491 20.942-3.026 22.288-13.22 1.603-12.146-14.743-15.088-14.036-20.448.252-1.904 2.785-3.693 7.471-3.074 5.287.697 9.309 3.479 9.309 3.479l3.377-9.493s-4.423-2.67-11.042-3.544Zm-94.652-11.745-.445 1.441s4.241 1.381 7.945 3.505c4.799 2.509 5.017 3.629 5.426 7.074l4.484 37.348 12.405 1.637 25.217-43.74-12.376-1.634-16.432 29.833-1.49-27.323c-.057-3.112-2.155-5.16-5.004-5.536l-19.73-2.605Zm60.009 7.922-15.816 44.981 11.802 1.558 15.781-44.986-11.767-1.553Zm65.821 8.689c-2.846-.376-4.557.968-6.019 3.518l-22.838 39.742 12.376 1.633 3.32-6.688 15.077 1.991.532 7.196 10.919 1.441-3.419-47.52-9.948-1.313Zm-.04 12.711 1.377 17.844-9.828-1.297 8.451-16.547Z"/>
  <defs>
    <linearGradient id="a" x1="-19.924" x2="413.171" y1="154.824" y2="-77.012" gradientUnits="userSpaceOnUse">
      <stop offset="0" stop-color="#0C4AD8"/>
      <stop offset=".5" stop-color="#0373FC"/>
      <stop offset=".969" stop-color="#3A93FF"/>
    </linearGradient>
  </defs>
</svg>
