<svg xmlns="http://www.w3.org/2000/svg" width="406" height="278" fill="none">
  <rect width="378.823" height="230" x="30.272" fill="#F90" rx="24" transform="rotate(7.521 30.272 0)"/>
  <g opacity=".6">
    <mask id="a" width="400" height="271" x="3" y="3" maskUnits="userSpaceOnUse" style="mask-type:alpha">
      <rect width="378.823" height="230" x="30.272" fill="#F90" rx="24" transform="rotate(7.521 30.272 0)"/>
    </mask>
    <g stroke="#E7900E" stroke-miterlimit="10" stroke-width="1.5" mask="url(#a)">
      <path d="M212.787-286.53c-84.68.684-152.913 110.727-163.458 198.778C37.187 13.718 104.598 61.465 72.382 135.65c-29.375 67.702-100.567 62.52-118.529 112.772-16.505 46.183 16.275 127.039 211.326 278.908"/>
      <path d="M175.328 522.658C-16.866 372.699-51.291 291.582-36.59 244.475c10.944-34.907 47.066-44.147 77.571-68.562a119.525 119.525 0 0 0 36.049-46.055C103.336 70.58 67.99 28.511 59.447-39.674a223.617 223.617 0 0 1-.526-52.4c9.258-88.586 70.288-198.253 152.18-201.143"/>
      <path d="M185.45 517.967C-3.873 369.919-39.933 288.587-27.036 240.658c9.484-35.231 44.078-45.505 73.228-70.157a129.338 129.338 0 0 0 35.467-46.292c26.49-58.35-4.87-99.878-12.58-168.186a253.122 253.122 0 0 1-.569-52.29c8.246-89.098 61.785-198.411 140.888-203.509"/>
      <path d="M195.541 513.288C9.129 367.185-28.546 285.596-17.489 236.782c8.056-35.581 41.086-46.835 68.9-71.765a140.902 140.902 0 0 0 34.878-46.472c26.682-57.477-.723-98.338-7.575-166.839a288.138 288.138 0 0 1-.65-52.228c7.073-89.618 53.279-198.556 129.593-205.861"/>
      <path d="M205.704 508.617C22.121 364.421-17.149 282.635-7.925 232.893c6.636-35.884 38.111-48.19 64.546-73.39a155.104 155.104 0 0 0 34.312-46.722c26.873-56.605 3.444-96.839-2.561-165.564a338.454 338.454 0 0 1-.69-52.043c5.904-90.152 44.79-198.715 118.318-208.241"/>
      <path d="M215.831 504C35.111 361.67-7.138 279.448 1.625 229.002c6.214-36.013 35.05-49.557 60.216-74.983a173.36 173.36 0 0 0 33.73-46.959c27.065-55.734 7.607-95.312 2.45-164.158a403.433 403.433 0 0 1-.764-51.922c4.676-90.693 36.286-198.874 107.04-210.605"/>
      <path d="M225.975 499.254C48.116 358.907 5.745 276.727 11.1 225.117c3.963-36.428 32.155-50.947 55.977-76.594a196.65 196.65 0 0 0 33.147-47.182c27.256-54.862 11.761-93.83 7.454-162.812a505.084 505.084 0 0 1-.81-51.797c3.506-91.227 27.74-199.039 95.748-212.971"/>
      <path d="M236.11 494.58C61.102 356.185 17.112 273.777 20.736 221.237c2.482-36.71 28.973-52.388 51.549-78.214a227.106 227.106 0 0 0 32.534-47.409c27.46-53.974 15.957-92.327 12.459-161.465-.796-16.085-1.337-33.216-.871-51.673 2.295-91.781 19.308-199.19 84.499-215.333"/>
      <path d="M246.244 489.905C74.112 353.394 28.637 270.847 30.254 217.357c1.133-36.99 25.925-53.841 47.228-79.865a271.97 271.97 0 0 0 31.967-47.644C137.1 36.746 129.541-.969 126.925-70.268c-.614-16.134-1.131-33.218-.928-51.565 1.08-92.204 10.811-199.289 73.199-217.641"/>
      <path d="M256.366 485.214C87.103 350.629 40.132 267.914 39.846 213.472c-.204-37.254 22.841-55.358 42.866-81.433a339.592 339.592 0 0 0 31.396-47.851c27.845-52.245 24.261-89.333 22.425-158.792-.442-16.111-.957-33.21-1.002-51.443-.178-92.851 2.284-199.496 61.897-220.053"/>
      <path d="M266.501 480.54C100.093 347.878 51.657 264.985 49.391 209.625c-1.528-37.517 19.734-56.819 38.554-83.054a456.308 456.308 0 0 0 30.797-48.075c28.035-51.36 28.412-87.822 27.502-157.436-.232-16.156-.768-33.214-1.049-51.317-1.448-93.399-6.221-199.642 50.608-222.434"/>
      <path d="M276.635 475.866c-163.536-130.75-213.45-213.839-217.692-270.16-2.834-37.792 16.618-58.31 34.225-84.647 10.115-15.14 20.353-30.659 30.216-48.313 28.212-50.49 32.578-86.323 32.506-156.09-.04-16.174-.594-33.204-1.105-51.222-2.719-93.946-14.725-199.801 39.328-224.784"/>
      <path d="M286.77 471.191C126.148 342.358 74.729 259.172 68.505 201.831c-4.155-38.068 13.464-59.85 29.885-86.271 9.693-15.59 19.707-31.181 29.633-48.536 28.446-49.612 36.728-84.812 37.509-154.742.168-16.191-.403-33.21-1.168-51.071-4.02-94.483-23.229-199.96 28.049-227.149"/>
      <path d="M296.901 466.546C139.095 339.602 86.307 256.163 78.067 197.957c-5.433-38.339 10.295-61.392 25.56-87.892 9.243-16.058 19.046-31.707 29.041-48.702 28.596-48.76 40.893-83.3 42.536-153.452.346-16.225-.244-33.202-1.229-50.947-5.348-95.037-31.761-200.124 16.743-229.517"/>
      <path d="M307.026 461.826c-154.94-124.989-209.124-208.569-219.41-267.76-6.723-38.627 7.099-62.938 21.216-89.488 8.78-16.528 18.404-32.258 28.467-48.996 28.784-47.86 45.046-81.803 47.533-152.048.424-16.959-.019-33.929-1.33-50.843-6.608-95.554-40.175-200.301 5.506-231.862"/>
      <path d="M317.161 457.152C165.092 334.074 109.468 250.231 97.158 190.232c-8-38.911 3.889-64.499 16.898-91.166 8.302-17 17.743-32.784 27.881-49.205 28.977-47.003 49.212-80.304 52.533-150.672.64-16.916.19-33.856-1.347-50.715-8.049-96.138-48.724-200.452-5.866-234.283"/>
      <path d="M327.295 452.478C178.082 331.323 121.134 247.219 106.713 186.299c-9.251-39.164.649-66.051 12.548-92.719 7.811-17.473 17.112-33.304 27.313-49.426 29.166-46.116 53.364-78.807 57.542-149.368a327.492 327.492 0 0 0-1.407-50.591c-9.356-96.633-57.216-200.581-17.09-236.612"/>
      <path d="M337.432 447.789C191.145 328.568 132.743 244.315 116.275 182.424c-10.522-39.492-2.633-67.623 8.206-94.328 7.297-18.008 16.453-33.844 26.731-49.663 29.33-45.249 57.529-77.294 62.561-148.02a281.442 281.442 0 0 0-1.467-50.468c-10.731-97.164-65.735-200.742-28.383-238.978"/>
      <path d="M347.566 443.114C204.069 325.867 144.392 241.329 125.881 178.541c-11.766-39.788-5.917-69.165 3.908-95.931 6.814-18.437 15.811-34.396 26.147-49.887 29.55-44.373 61.696-75.795 67.537-146.677a246.495 246.495 0 0 0-1.528-50.344c-12.12-97.698-74.185-200.968-39.66-241.343"/>
      <path d="M357.701 438.44C217.083 323.047 156.042 238.329 135.386 174.66c-13.023-40.115-9.244-70.729-.461-97.56 6.206-18.925 15.162-34.904 25.592-50.105 29.739-43.487 65.846-74.284 72.569-145.327a218.242 218.242 0 0 0-1.587-50.221c-13.554-98.223-82.756-201.063-50.967-243.711"/>
      <path d="M367.822 433.749C230.074 320.282 167.764 235.338 144.927 170.826c-14.252-40.423-12.573-72.263-4.79-99.152 5.614-19.412 14.504-35.444 24.965-50.335 29.947-42.628 70.03-72.797 77.59-143.992a197.171 197.171 0 0 0-1.645-50.112c-15.113-98.691-91.219-201.203-62.229-246.088"/>
      <path d="M377.955 429.09C159.034 248.064 127.622 136.393 145.367 66.119c19.368-76.714 95.618-96.898 106.99-193.202 13.325-112.973-105.883-243.373-75.231-298.414"/>
    </g>
  </g>
  <g opacity=".2">
    <path stroke="#fff" stroke-linecap="round" stroke-linejoin="round" stroke-width="2" d="m228.707 64.908-31.353-4.14a1.437 1.437 0 0 0-1.613 1.237l-.753 5.7c-.104.788.45 1.51 1.237 1.614l31.353 4.14a1.437 1.437 0 0 0 1.613-1.237l.753-5.7a1.438 1.438 0 0 0-1.237-1.614Z"/>
    <path stroke="#fff" stroke-linecap="round" stroke-linejoin="round" stroke-width="2" d="m226.153 73.27-1.693 12.827a1.437 1.437 0 0 1-1.614 1.237l-25.652-3.387a1.438 1.438 0 0 1-1.237-1.613l1.693-12.827M213.031 62.838 210.02 85.64M221.366 61.89c-2.296 1.745-8.335.948-8.335.948s.797-6.039 3.078-7.804a4.32 4.32 0 1 1 5.257 6.857v0ZM205.226 59.76c1.765 2.28 7.804 3.078 7.804 3.078s.797-6.039-.947-8.336a4.322 4.322 0 0 0-6.057-.8 4.32 4.32 0 0 0-.8 6.058v0Z"/>
    <path fill="#fff" d="m226.153 73.27-1.693 12.827a1.437 1.437 0 0 1-1.614 1.237l-25.652-3.387a1.438 1.438 0 0 1-1.237-1.613l1.693-12.827 28.503 3.764Z" opacity=".2"/>
  </g>
  <path fill="#fff" fill-rule="evenodd" d="M214.688 206.177c-.14-.275-.282-.546-.422-.814-1.145-2.184-2.236-4.265-1.732-8.082l1.879-14.228c.065-.495.133-.986.2-1.473.751-5.451 1.436-10.426-1.928-14.744-2.871-3.803-8.223-5.717-12.435-6.273-8.238-1.088-17.857.941-21.203 11.431-.354 1.114.352 1.815 1.042 2.077l8.263 2.065c.791.062 1.466-.678 1.726-1.478 1.208-3.608 4.381-4.998 7.683-4.562 1.78.235 3.711 1.189 4.543 3.013.865 1.824.551 4.065.271 6.069a80.16 80.16 0 0 0-.095.69l-.157 1.192a209.92 209.92 0 0 1-2.47-.053c-4.639-.116-10.015-.25-14.227 1.062-5.747 1.762-10.219 6.299-11.197 13.707-1.254 9.494 3.783 14.988 11.075 15.951 6.154.812 9.724-.276 15.146-4.755.189.393.358.756.517 1.097.898 1.927 1.484 3.184 3.641 5.647.596.448 1.45.547 2.092.076a393.14 393.14 0 0 1 7.438-5.188c.788-.519.793-1.526.35-2.427Zm-16.49-6.352c-1.715 2.395-4.111 3.682-6.543 3.361-3.316-.438-4.91-3.367-4.388-7.319 1.027-7.78 7.831-8.318 14.088-7.492-.061.465-.119.934-.177 1.404-.434 3.526-.877 7.122-2.98 10.046Z" clip-rule="evenodd"/>
  <path fill="#fff" d="M222.984 223.069c-9.147 5.426-21.622 7.308-31.971 5.942-14.499-1.914-26.805-9.354-35.431-20.174-.676-.85.151-1.781 1.005-1.077 9.79 8.026 22.449 13.75 36.067 15.548 9.187 1.213 19.552.515 29.398-2.464 1.486-.447 2.446 1.328.932 2.225Z"/>
  <path fill="#fff" d="M217.355 217.705c2.714.009 8.763.034 9.632 1.619.869 1.585-2.142 7.23-3.499 9.775l-.01.018c-.409.768.198 1.176.963.654 4.97-3.377 7.216-11.536 6.464-12.86-.747-1.307-8.385-3.362-13.598-.435-.802.455-.777 1.222.048 1.229Z"/>
</svg>
